{
    "asset" : {
        "generator" : "Khronos glTF Blender I/O v0.9.2",
        "version" : "2.0"
    },
    "scene" : 0,
    "scenes" : [
        {
            "name" : "Scene",
            "nodes" : [
                0
            ]
        }
    ],
    "nodes" : [
        {
            "mesh" : 0,
            "name" : "bar_chair",
            "rotation" : [
                0.7071068286895752,
                0,
                0,
                0.7071067094802856
            ],
            "scale" : [
                0.6113544702529907,
                0.611354410648346,
                0.7180815935134888
            ],
            "translation" : [
                0,
                0.7090337872505188,
                0
            ]
        }
    ],
    "meshes" : [
        {
            "name" : "bar_chair",
            "primitives" : [
                {
                    "attributes" : {
                        "POSITION" : 0,
                        "NORMAL" : 1,
                        "TEXCOORD_0" : 2
                    },
                    "indices" : 3
                }
            ]
        }
    ],
    "accessors" : [
        {
            "bufferView" : 0,
            "componentType" : 5126,
            "count" : 1344,
            "max" : [
                0.33741599321365356,
                0.33741599321365356,
                0.974873423576355
            ],
            "min" : [
                -0.33741599321365356,
                -0.33741605281829834,
                -0.32014286518096924
            ],
            "type" : "VEC3"
        },
        {
            "bufferView" : 1,
            "componentType" : 5126,
            "count" : 1344,
            "type" : "VEC3"
        },
        {
            "bufferView" : 2,
            "componentType" : 5126,
            "count" : 1344,
            "type" : "VEC2"
        },
        {
            "bufferView" : 3,
            "componentType" : 5123,
            "count" : 1548,
            "type" : "SCALAR"
        }
    ],
    "bufferViews" : [
        {
            "buffer" : 0,
            "byteLength" : 16128,
            "byteOffset" : 0
        },
        {
            "buffer" : 0,
            "byteLength" : 16128,
            "byteOffset" : 16128
        },
        {
            "buffer" : 0,
            "byteLength" : 10752,
            "byteOffset" : 32256
        },
        {
            "buffer" : 0,
            "byteLength" : 3096,
            "byteOffset" : 43008
        }
    ],
    "buffers" : [
        {
            "byteLength" : 46104,
            "uri" : "data:application/octet-stream;base64,"
        }
    ]
}
