{
    "asset" : {
        "copyright" : "Kocieba PGS",
        "generator" : "Khronos glTF Blender I/O v0.9.36",
        "version" : "2.0"
    },
    "scene" : 0,
    "scenes" : [
        {
            "name" : "Scene",
            "nodes" : [
                0
            ]
        }
    ],
    "nodes" : [
        {
            "mesh" : 0,
            "name" : "bar_chair",
            "rotation" : [
                1,
                0,
                0,
                -1.3435885648505064e-07
            ],
            "scale" : [
                0.6113544702529907,
                0.7180815935134888,
                0.611354410648346
            ],
            "translation" : [
                0,
                0.7090338468551636,
                0
            ]
        }
    ],
    "materials" : [
        {
            "doubleSided" : true,
            "name" : "Material.001",
            "pbrMetallicRoughness" : {
                "baseColorFactor" : [
                    0.0020160521380603313,
                    0.0020160521380603313,
                    0.0020160521380603313,
                    1
                ],
                "metallicFactor" : 0.136363685131073,
                "roughnessFactor" : 0.5
            }
        }
    ],
    "meshes" : [
        {
            "name" : "bar_chair",
            "primitives" : [
                {
                    "attributes" : {
                        "POSITION" : 0,
                        "NORMAL" : 1,
                        "TEXCOORD_0" : 2
                    },
                    "indices" : 3,
                    "material" : 0
                }
            ]
        }
    ],
    "accessors" : [
        {
            "bufferView" : 0,
            "componentType" : 5126,
            "count" : 1374,
            "max" : [
                0.33741599321365356,
                0.974873423576355,
                0.33741605281829834
            ],
            "min" : [
                -0.33741599321365356,
                -0.32014286518096924,
                -0.33741599321365356
            ],
            "type" : "VEC3"
        },
        {
            "bufferView" : 1,
            "componentType" : 5126,
            "count" : 1374,
            "type" : "VEC3"
        },
        {
            "bufferView" : 2,
            "componentType" : 5126,
            "count" : 1374,
            "type" : "VEC2"
        },
        {
            "bufferView" : 3,
            "componentType" : 5123,
            "count" : 1548,
            "type" : "SCALAR"
        }
    ],
    "bufferViews" : [
        {
            "buffer" : 0,
            "byteLength" : 16488,
            "byteOffset" : 0
        },
        {
            "buffer" : 0,
            "byteLength" : 16488,
            "byteOffset" : 16488
        },
        {
            "buffer" : 0,
            "byteLength" : 10992,
            "byteOffset" : 32976
        },
        {
            "buffer" : 0,
            "byteLength" : 3096,
            "byteOffset" : 43968
        }
    ],
    "buffers" : [
        {
            "byteLength" : 47064,
            "uri" : "data:application/octet-stream;base64,"
        }
    ]
}
