####
#
# OBJ File Generated by Meshlab
#
####
# Object bar_table_v3.obj
#
# Vertices: 80
# Faces: 120
#
####
mtllib ./bar_table_v3.obj.mtl

vn 1.570796 1.570796 1.570795
v 1.250000 1.287500 0.600000 0.752941 0.752941 0.752941
vn 1.570795 1.570796 -1.570796
v 1.250000 1.287500 -0.600000 0.752941 0.752941 0.752941
vn 1.570795 -1.570796 1.570796
v 1.250000 1.212500 0.600000 0.752941 0.752941 0.752941
vn 1.570796 -1.570796 -1.570795
v 1.250000 1.212500 -0.600000 0.752941 0.752941 0.752941
vn -1.570796 1.570796 -1.570795
v -1.250000 1.287500 -0.600000 0.752941 0.752941 0.752941
vn -1.570795 1.570796 1.570796
v -1.250000 1.287500 0.600000 0.752941 0.752941 0.752941
vn -1.570795 -1.570796 -1.570796
v -1.250000 1.212500 -0.600000 0.752941 0.752941 0.752941
vn -1.570796 -1.570796 1.570795
v -1.250000 1.212500 0.600000 0.752941 0.752941 0.752941
vn 1.570796 1.570796 1.570796
v -1.100000 1.249768 0.590000 0.752941 0.752941 0.752941
vn 1.570796 1.570796 -1.570796
v -1.100000 1.249768 0.490000 0.752941 0.752941 0.752941
vn 1.570796 -1.570796 1.570796
v -1.100000 -0.000232 0.590000 0.752941 0.752941 0.752941
vn 1.570796 -1.570796 -1.570796
v -1.100000 -0.000232 0.490000 0.752941 0.752941 0.752941
vn -1.570796 1.570796 -1.570796
v -1.200000 1.249768 0.490000 0.752941 0.752941 0.752941
vn -1.570796 1.570796 1.570796
v -1.200000 1.249768 0.590000 0.752941 0.752941 0.752941
vn -1.570796 -1.570796 -1.570796
v -1.200000 -0.000232 0.490000 0.752941 0.752941 0.752941
vn -1.570796 -1.570796 1.570796
v -1.200000 -0.000232 0.590000 0.752941 0.752941 0.752941
vn 1.570796 1.570796 1.570796
v 1.200000 1.249768 -0.490000 0.752941 0.752941 0.752941
vn 1.570796 1.570796 -1.570796
v 1.200000 1.249768 -0.590000 0.752941 0.752941 0.752941
vn 1.570796 -1.570796 1.570796
v 1.200000 -0.000232 -0.490000 0.752941 0.752941 0.752941
vn 1.570796 -1.570796 -1.570796
v 1.200000 -0.000232 -0.590000 0.752941 0.752941 0.752941
vn -1.570796 1.570796 -1.570796
v 1.100000 1.249768 -0.590000 0.752941 0.752941 0.752941
vn -1.570796 1.570796 1.570796
v 1.100000 1.249768 -0.490000 0.752941 0.752941 0.752941
vn -1.570796 -1.570796 -1.570796
v 1.100000 -0.000232 -0.590000 0.752941 0.752941 0.752941
vn -1.570796 -1.570796 1.570796
v 1.100000 -0.000232 -0.490000 0.752941 0.752941 0.752941
vn 1.570796 1.570796 1.570796
v 1.200000 1.249768 0.590000 0.752941 0.752941 0.752941
vn 1.570796 1.570796 -1.570796
v 1.200000 1.249768 0.490000 0.752941 0.752941 0.752941
vn 1.570796 -1.570796 1.570796
v 1.200000 -0.000232 0.590000 0.752941 0.752941 0.752941
vn 1.570796 -1.570796 -1.570796
v 1.200000 -0.000232 0.490000 0.752941 0.752941 0.752941
vn -1.570796 1.570796 -1.570796
v 1.100000 1.249768 0.490000 0.752941 0.752941 0.752941
vn -1.570796 1.570796 1.570796
v 1.100000 1.249768 0.590000 0.752941 0.752941 0.752941
vn -1.570796 -1.570796 -1.570796
v 1.100000 -0.000232 0.490000 0.752941 0.752941 0.752941
vn -1.570796 -1.570796 1.570796
v 1.100000 -0.000232 0.590000 0.752941 0.752941 0.752941
vn 1.570796 1.570796 1.570796
v -1.100000 1.249768 -0.488104 0.752941 0.752941 0.752941
vn 1.570796 1.570796 -1.570796
v -1.100000 1.249768 -0.588104 0.752941 0.752941 0.752941
vn 1.570796 -1.570796 1.570796
v -1.100000 -0.000232 -0.488104 0.752941 0.752941 0.752941
vn 1.570796 -1.570796 -1.570796
v -1.100000 -0.000232 -0.588104 0.752941 0.752941 0.752941
vn -1.570796 1.570796 -1.570796
v -1.200000 1.249768 -0.588104 0.752941 0.752941 0.752941
vn -1.570796 1.570796 1.570796
v -1.200000 1.249768 -0.488104 0.752941 0.752941 0.752941
vn -1.570796 -1.570796 -1.570796
v -1.200000 -0.000232 -0.588104 0.752941 0.752941 0.752941
vn -1.570796 -1.570796 1.570796
v -1.200000 -0.000232 -0.488104 0.752941 0.752941 0.752941
vn 1.570796 1.570796 1.570796
v -1.125000 0.153758 0.500000 0.752941 0.752941 0.752941
vn 1.570796 1.570796 -1.570796
v -1.125000 0.153758 -0.500000 0.752941 0.752941 0.752941
vn 1.570796 -1.570796 1.570796
v -1.125000 0.103758 0.500000 0.752941 0.752941 0.752941
vn 1.570796 -1.570796 -1.570796
v -1.125000 0.103758 -0.500000 0.752941 0.752941 0.752941
vn -1.570796 1.570796 -1.570796
v -1.175000 0.153758 -0.500000 0.752941 0.752941 0.752941
vn -1.570796 1.570796 1.570796
v -1.175000 0.153758 0.500000 0.752941 0.752941 0.752941
vn -1.570796 -1.570796 -1.570796
v -1.175000 0.103758 -0.500000 0.752941 0.752941 0.752941
vn -1.570796 -1.570796 1.570796
v -1.175000 0.103758 0.500000 0.752941 0.752941 0.752941
vn 1.570796 1.570796 1.570796
v 1.175000 0.153758 0.500000 0.752941 0.752941 0.752941
vn 1.570796 1.570796 -1.570796
v 1.175000 0.153758 -0.500000 0.752941 0.752941 0.752941
vn 1.570796 -1.570796 1.570796
v 1.175000 0.103758 0.500000 0.752941 0.752941 0.752941
vn 1.570796 -1.570796 -1.570796
v 1.175000 0.103758 -0.500000 0.752941 0.752941 0.752941
vn -1.570796 1.570796 -1.570796
v 1.125000 0.153758 -0.500000 0.752941 0.752941 0.752941
vn -1.570796 1.570796 1.570796
v 1.125000 0.153758 0.500000 0.752941 0.752941 0.752941
vn -1.570796 -1.570796 -1.570796
v 1.125000 0.103758 -0.500000 0.752941 0.752941 0.752941
vn -1.570796 -1.570796 1.570796
v 1.125000 0.103758 0.500000 0.752941 0.752941 0.752941
vn 1.570796 1.570796 1.570796
v 1.150000 0.154000 0.025000 0.752941 0.752941 0.752941
vn 1.570796 1.570796 -1.570796
v 1.150000 0.154000 -0.025000 0.752941 0.752941 0.752941
vn 1.570796 -1.570796 1.570796
v 1.150000 0.104000 0.025000 0.752941 0.752941 0.752941
vn 1.570796 -1.570796 -1.570796
v 1.150000 0.104000 -0.025000 0.752941 0.752941 0.752941
vn -1.570796 1.570796 -1.570796
v -1.150000 0.154000 -0.025000 0.752941 0.752941 0.752941
vn -1.570796 1.570796 1.570796
v -1.150000 0.154000 0.025000 0.752941 0.752941 0.752941
vn -1.570796 -1.570796 -1.570796
v -1.150000 0.104000 -0.025000 0.752941 0.752941 0.752941
vn -1.570796 -1.570796 1.570796
v -1.150000 0.104000 0.025000 0.752941 0.752941 0.752941
vn -0.000000 2.221442 1.570793
v 1.128008 1.283363 0.025000 0.752941 0.752941 0.752941
vn 0.000001 2.221440 -1.570796
v 1.128008 1.283363 -0.025000 0.752941 0.752941 0.752941
vn 2.221440 0.000001 1.570796
v 1.163363 1.248008 0.025000 0.752941 0.752941 0.752941
vn 2.221442 -0.000000 -1.570793
v 1.163363 1.248008 -0.025000 0.752941 0.752941 0.752941
vn -2.221442 0.000000 -1.570792
v -0.003363 0.151992 -0.025000 0.752941 0.752941 0.752941
vn -2.221440 -0.000001 1.570796
v -0.003363 0.151992 0.025000 0.752941 0.752941 0.752941
vn -0.000001 -2.221440 -1.570796
v 0.031992 0.116637 -0.025000 0.752941 0.752941 0.752941
vn 0.000000 -2.221442 1.570793
v 0.031992 0.116637 0.025000 0.752941 0.752941 0.752941
vn 2.221442 0.000000 1.570792
v 0.003363 0.151992 0.025000 0.752941 0.752941 0.752941
vn 2.221440 -0.000001 -1.570796
v 0.003363 0.151992 -0.025000 0.752941 0.752941 0.752941
vn 0.000001 -2.221440 1.570796
v -0.031992 0.116637 0.025000 0.752941 0.752941 0.752941
vn -0.000000 -2.221442 -1.570793
v -0.031992 0.116637 -0.025000 0.752941 0.752941 0.752941
vn 0.000000 2.221442 -1.570793
v -1.128008 1.283363 -0.025000 0.752941 0.752941 0.752941
vn -0.000001 2.221440 1.570796
v -1.128008 1.283363 0.025000 0.752941 0.752941 0.752941
vn -2.221440 0.000001 -1.570796
v -1.163363 1.248008 -0.025000 0.752941 0.752941 0.752941
vn -2.221442 -0.000000 1.570793
v -1.163363 1.248008 0.025000 0.752941 0.752941 0.752941
# 80 vertices, 0 vertices normals


usemtl material_0
vt 0.000000 1.000000
vt 0.000000 0.000000
vt 1.000000 1.000000
f 1/1/1 3/2/3 2/3/2
vt 1.000000 0.000000
f 3/2/3 4/4/4 2/3/2
f 5/1/5 7/2/7 6/3/6
f 7/2/7 8/4/8 6/3/6
f 5/1/5 6/2/6 2/3/2
f 6/2/6 1/4/1 2/3/2
f 8/1/8 7/2/7 3/3/3
f 7/2/7 4/4/4 3/3/3
f 6/1/6 8/2/8 1/3/1
f 8/2/8 3/4/3 1/3/1
f 2/1/2 4/2/4 5/3/5
f 4/2/4 7/4/7 5/3/5
f 9/1/9 11/2/11 10/3/10
f 11/2/11 12/4/12 10/3/10
f 13/1/13 15/2/15 14/3/14
f 15/2/15 16/4/16 14/3/14
f 13/1/13 14/2/14 10/3/10
f 14/2/14 9/4/9 10/3/10
f 16/1/16 15/2/15 11/3/11
f 15/2/15 12/4/12 11/3/11
f 14/1/14 16/2/16 9/3/9
f 16/2/16 11/4/11 9/3/9
f 10/1/10 12/2/12 13/3/13
f 12/2/12 15/4/15 13/3/13
f 17/1/17 19/2/19 18/3/18
f 19/2/19 20/4/20 18/3/18
f 21/1/21 23/2/23 22/3/22
f 23/2/23 24/4/24 22/3/22
f 21/1/21 22/2/22 18/3/18
f 22/2/22 17/4/17 18/3/18
f 24/1/24 23/2/23 19/3/19
f 23/2/23 20/4/20 19/3/19
f 22/1/22 24/2/24 17/3/17
f 24/2/24 19/4/19 17/3/17
f 18/1/18 20/2/20 21/3/21
f 20/2/20 23/4/23 21/3/21
f 25/1/25 27/2/27 26/3/26
f 27/2/27 28/4/28 26/3/26
f 29/1/29 31/2/31 30/3/30
f 31/2/31 32/4/32 30/3/30
f 29/1/29 30/2/30 26/3/26
f 30/2/30 25/4/25 26/3/26
f 32/1/32 31/2/31 27/3/27
f 31/2/31 28/4/28 27/3/27
f 30/1/30 32/2/32 25/3/25
f 32/2/32 27/4/27 25/3/25
f 26/1/26 28/2/28 29/3/29
f 28/2/28 31/4/31 29/3/29
f 33/1/33 35/2/35 34/3/34
f 35/2/35 36/4/36 34/3/34
f 37/1/37 39/2/39 38/3/38
f 39/2/39 40/4/40 38/3/38
f 37/1/37 38/2/38 34/3/34
f 38/2/38 33/4/33 34/3/34
f 40/1/40 39/2/39 35/3/35
f 39/2/39 36/4/36 35/3/35
f 38/1/38 40/2/40 33/3/33
f 40/2/40 35/4/35 33/3/33
f 34/1/34 36/2/36 37/3/37
f 36/2/36 39/4/39 37/3/37
f 41/1/41 43/2/43 42/3/42
f 43/2/43 44/4/44 42/3/42
f 45/1/45 47/2/47 46/3/46
f 47/2/47 48/4/48 46/3/46
f 45/1/45 46/2/46 42/3/42
f 46/2/46 41/4/41 42/3/42
f 48/1/48 47/2/47 43/3/43
f 47/2/47 44/4/44 43/3/43
f 46/1/46 48/2/48 41/3/41
f 48/2/48 43/4/43 41/3/41
f 42/1/42 44/2/44 45/3/45
f 44/2/44 47/4/47 45/3/45
f 49/1/49 51/2/51 50/3/50
f 51/2/51 52/4/52 50/3/50
f 53/1/53 55/2/55 54/3/54
f 55/2/55 56/4/56 54/3/54
f 53/1/53 54/2/54 50/3/50
f 54/2/54 49/4/49 50/3/50
f 56/1/56 55/2/55 51/3/51
f 55/2/55 52/4/52 51/3/51
f 54/1/54 56/2/56 49/3/49
f 56/2/56 51/4/51 49/3/49
f 50/1/50 52/2/52 53/3/53
f 52/2/52 55/4/55 53/3/53
f 57/1/57 59/2/59 58/3/58
f 59/2/59 60/4/60 58/3/58
f 61/1/61 63/2/63 62/3/62
f 63/2/63 64/4/64 62/3/62
f 61/1/61 62/2/62 58/3/58
f 62/2/62 57/4/57 58/3/58
f 64/1/64 63/2/63 59/3/59
f 63/2/63 60/4/60 59/3/59
f 62/1/62 64/2/64 57/3/57
f 64/2/64 59/4/59 57/3/57
f 58/1/58 60/2/60 61/3/61
f 60/2/60 63/4/63 61/3/61
f 65/1/65 67/2/67 66/3/66
f 67/2/67 68/4/68 66/3/66
f 69/1/69 71/2/71 70/3/70
f 71/2/71 72/4/72 70/3/70
f 69/1/69 70/2/70 66/3/66
f 70/2/70 65/4/65 66/3/66
f 72/1/72 71/2/71 67/3/67
f 71/2/71 68/4/68 67/3/67
f 70/1/70 72/2/72 65/3/65
f 72/2/72 67/4/67 65/3/65
f 66/1/66 68/2/68 69/3/69
f 68/2/68 71/4/71 69/3/69
f 73/1/73 75/2/75 74/3/74
f 75/2/75 76/4/76 74/3/74
f 77/1/77 79/2/79 78/3/78
f 79/2/79 80/4/80 78/3/78
f 77/1/77 78/2/78 74/3/74
f 78/2/78 73/4/73 74/3/74
f 80/1/80 79/2/79 75/3/75
f 79/2/79 76/4/76 75/3/75
f 78/1/78 80/2/80 73/3/73
f 80/2/80 75/4/75 73/3/73
f 74/1/74 76/2/76 77/3/77
f 76/2/76 79/4/79 77/3/77
# 120 faces, 4 coords texture

# End of File
