{
    "asset" : {
        "copyright" : "Kocieba PGS",
        "generator" : "Khronos glTF Blender I/O v0.9.36",
        "version" : "2.0"
    },
    "scene" : 0,
    "scenes" : [
        {
            "name" : "Scene",
            "nodes" : [
                0
            ]
        }
    ],
    "nodes" : [
        {
            "mesh" : 0,
            "name" : "big_fridge",
            "rotation" : [
                0,
                0.7071067690849304,
                0,
                0.7071067690849304
            ],
            "scale" : [
                1.2301360368728638,
                1,
                1
            ],
            "translation" : [
                -0.17289051413536072,
                1.4196336269378662,
                -0.0006805062294006348
            ]
        }
    ],
    "materials" : [
        {
            "doubleSided" : true,
            "name" : "fridge back",
            "pbrMetallicRoughness" : {
                "baseColorFactor" : [
                    0,
                    0,
                    0,
                    1
                ],
                "metallicFactor" : 0.6638655662536621,
                "roughnessFactor" : 0.25
            }
        },
        {
            "doubleSided" : true,
            "name" : "fridge door",
            "pbrMetallicRoughness" : {
                "baseColorTexture" : {
                    "index" : 0,
                    "texCoord" : 0
                },
                "metallicFactor" : 0,
                "roughnessFactor" : 0.6848739385604858
            }
        },
        {
            "doubleSided" : true,
            "name" : "fridge handle.001",
            "pbrMetallicRoughness" : {
                "baseColorFactor" : [
                    0,
                    0,
                    0,
                    1
                ],
                "metallicFactor" : 0,
                "roughnessFactor" : 0.34453800320625305
            }
        },
        {
            "doubleSided" : true,
            "name" : "fridge handle",
            "pbrMetallicRoughness" : {
                "baseColorFactor" : [
                    0,
                    0,
                    0,
                    1
                ],
                "metallicFactor" : 0,
                "roughnessFactor" : 0.34453800320625305
            }
        }
    ],
    "meshes" : [
        {
            "name" : "Cube",
            "primitives" : [
                {
                    "attributes" : {
                        "POSITION" : 0,
                        "TEXCOORD_0" : 1
                    },
                    "indices" : 2,
                    "material" : 0
                },
                {
                    "attributes" : {
                        "POSITION" : 3,
                        "TEXCOORD_0" : 4
                    },
                    "indices" : 5,
                    "material" : 1
                },
                {
                    "attributes" : {
                        "POSITION" : 6,
                        "TEXCOORD_0" : 7
                    },
                    "indices" : 8,
                    "material" : 2
                },
                {
                    "attributes" : {
                        "POSITION" : 9,
                        "TEXCOORD_0" : 10
                    },
                    "indices" : 11,
                    "material" : 3
                }
            ]
        }
    ],
    "textures" : [
        {
            "sampler" : 0,
            "source" : 0
        }
    ],
    "images" : [
        {
            "bufferView" : 6,
            "mimeType" : "image/png",
            "name" : "chalk_fixed2"
        }
    ],
    "accessors" : [
        {
            "bufferView" : 0,
            "componentType" : 5126,
            "count" : 184,
            "max" : [
                0.8271094560623169,
                1.5351392030715942,
                0.8744308948516846
            ],
            "min" : [
                -0.8271094560623169,
                -1.5351356267929077,
                -0.9993194937705994
            ],
            "type" : "VEC3"
        },
        {
            "bufferView" : 1,
            "componentType" : 5126,
            "count" : 184,
            "type" : "VEC2"
        },
        {
            "bufferView" : 2,
            "componentType" : 5123,
            "count" : 282,
            "type" : "SCALAR"
        },
        {
            "bufferView" : 3,
            "componentType" : 5126,
            "count" : 44,
            "max" : [
                0.8271094560623169,
                1.5351392030715942,
                1.0006805658340454
            ],
            "min" : [
                -0.8271094560623169,
                -1.5351356267929077,
                0.8744308948516846
            ],
            "type" : "VEC3"
        },
        {
            "bufferView" : 4,
            "componentType" : 5126,
            "count" : 44,
            "type" : "VEC2"
        },
        {
            "bufferView" : 5,
            "componentType" : 5123,
            "count" : 66,
            "type" : "SCALAR"
        },
        {
            "bufferView" : 7,
            "componentType" : 5126,
            "count" : 152,
            "max" : [
                0.09719165414571762,
                0.18884128332138062,
                1.086686372756958
            ],
            "min" : [
                -0.09721089154481888,
                -0.26180875301361084,
                1.0006805658340454
            ],
            "type" : "VEC3"
        },
        {
            "bufferView" : 8,
            "componentType" : 5126,
            "count" : 152,
            "type" : "VEC2"
        },
        {
            "bufferView" : 9,
            "componentType" : 5123,
            "count" : 264,
            "type" : "SCALAR"
        },
        {
            "bufferView" : 10,
            "componentType" : 5126,
            "count" : 38,
            "max" : [
                0.8271094560623169,
                1.5351392030715942,
                1.0006805658340454
            ],
            "min" : [
                -0.8271094560623169,
                -1.5351356267929077,
                0.8744308948516846
            ],
            "type" : "VEC3"
        },
        {
            "bufferView" : 11,
            "componentType" : 5126,
            "count" : 38,
            "type" : "VEC2"
        },
        {
            "bufferView" : 12,
            "componentType" : 5123,
            "count" : 54,
            "type" : "SCALAR"
        }
    ],
    "bufferViews" : [
        {
            "buffer" : 0,
            "byteLength" : 2208,
            "byteOffset" : 0
        },
        {
            "buffer" : 0,
            "byteLength" : 1472,
            "byteOffset" : 2208
        },
        {
            "buffer" : 0,
            "byteLength" : 564,
            "byteOffset" : 3680
        },
        {
            "buffer" : 0,
            "byteLength" : 528,
            "byteOffset" : 4244
        },
        {
            "buffer" : 0,
            "byteLength" : 352,
            "byteOffset" : 4772
        },
        {
            "buffer" : 0,
            "byteLength" : 132,
            "byteOffset" : 5124
        },
        {
            "buffer" : 0,
            "byteLength" : 156872,
            "byteOffset" : 5256
        },
        {
            "buffer" : 0,
            "byteLength" : 1824,
            "byteOffset" : 162128
        },
        {
            "buffer" : 0,
            "byteLength" : 1216,
            "byteOffset" : 163952
        },
        {
            "buffer" : 0,
            "byteLength" : 528,
            "byteOffset" : 165168
        },
        {
            "buffer" : 0,
            "byteLength" : 456,
            "byteOffset" : 165696
        },
        {
            "buffer" : 0,
            "byteLength" : 304,
            "byteOffset" : 166152
        },
        {
            "buffer" : 0,
            "byteLength" : 108,
            "byteOffset" : 166456
        }
    ],
    "samplers" : [
        {
            "magFilter" : 9729,
            "minFilter" : 9986,
            "wrapS" : 33071,
            "wrapT" : 33071
        }
    ],
    "buffers" : [
        {
            "byteLength" : 166564,
            "uri" : "data:application/octet-stream;base64,"
        }
    ]
}
