{
    "asset" : {
        "copyright" : "Kocieba PGS",
        "generator" : "Khronos glTF Blender I/O v0.9.36",
        "version" : "2.0"
    },
    "scene" : 0,
    "scenes" : [
        {
            "name" : "Scene",
            "nodes" : [
                0
            ]
        }
    ],
    "nodes" : [
        {
            "mesh" : 0,
            "name" : "Bookcase",
            "rotation" : [
                0.7071068286895752,
                0,
                0,
                0.7071067094802856
            ]
        }
    ],
    "materials" : [
        {
            "doubleSided" : true,
            "name" : "Material.001",
            "pbrMetallicRoughness" : {
                "baseColorFactor" : [
                    0.0020160521380603313,
                    0.0020160521380603313,
                    0.0020160521380603313,
                    1
                ],
                "metallicFactor" : 0.136363685131073,
                "roughnessFactor" : 0.5
            }
        }
    ],
    "meshes" : [
        {
            "name" : "Bookcase",
            "primitives" : [
                {
                    "attributes" : {
                        "POSITION" : 0,
                        "NORMAL" : 1,
                        "TEXCOORD_0" : 2
                    },
                    "indices" : 3,
                    "material" : 0
                }
            ]
        }
    ],
    "accessors" : [
        {
            "bufferView" : 0,
            "componentType" : 5126,
            "count" : 30837,
            "max" : [
                1.4514000415802002,
                0.12381249666213989,
                0.004937500227242708
            ],
            "min" : [
                -1.4708702564239502,
                -0.1494625061750412,
                -1.638550043106079
            ],
            "type" : "VEC3"
        },
        {
            "bufferView" : 1,
            "componentType" : 5126,
            "count" : 30837,
            "type" : "VEC3"
        },
        {
            "bufferView" : 2,
            "componentType" : 5126,
            "count" : 30837,
            "type" : "VEC2"
        },
        {
            "bufferView" : 3,
            "componentType" : 5123,
            "count" : 101760,
            "type" : "SCALAR"
        }
    ],
    "bufferViews" : [
        {
            "buffer" : 0,
            "byteLength" : 370044,
            "byteOffset" : 0
        },
        {
            "buffer" : 0,
            "byteLength" : 370044,
            "byteOffset" : 370044
        },
        {
            "buffer" : 0,
            "byteLength" : 246696,
            "byteOffset" : 740088
        },
        {
            "buffer" : 0,
            "byteLength" : 203520,
            "byteOffset" : 986784
        }
    ],
    "buffers" : [
        {
            "byteLength" : 1190304,
            "uri" : "data:application/octet-stream;base64,"
        }
    ]
}
