{
    "asset" : {
        "generator" : "Khronos glTF Blender I/O v0.9.21",
        "version" : "2.0"
    },
    "scene" : 0,
    "scenes" : [
        {
            "name" : "Scene",
            "nodes" : [
                0
            ]
        }
    ],
    "nodes" : [
        {
            "mesh" : 0,
            "name" : "Bookcase"
        }
    ],
    "meshes" : [
        {
            "name" : "Bookcase",
            "primitives" : [
                {
                    "attributes" : {
                        "POSITION" : 0,
                        "NORMAL" : 1,
                        "TEXCOORD_0" : 2
                    },
                    "indices" : 3
                }
            ]
        }
    ],
    "accessors" : [
        {
            "bufferView" : 0,
            "componentType" : 5126,
            "count" : 20076,
            "max" : [
                1.4514000415802002,
                1.638550043106079,
                0.12381249666213989
            ],
            "min" : [
                -1.4708702564239502,
                -0.004937500227242708,
                -0.1494625061750412
            ],
            "type" : "VEC3"
        },
        {
            "bufferView" : 1,
            "componentType" : 5126,
            "count" : 20076,
            "type" : "VEC3"
        },
        {
            "bufferView" : 2,
            "componentType" : 5126,
            "count" : 20076,
            "type" : "VEC2"
        },
        {
            "bufferView" : 3,
            "componentType" : 5123,
            "count" : 101760,
            "type" : "SCALAR"
        }
    ],
    "bufferViews" : [
        {
            "buffer" : 0,
            "byteLength" : 240912,
            "byteOffset" : 0
        },
        {
            "buffer" : 0,
            "byteLength" : 240912,
            "byteOffset" : 240912
        },
        {
            "buffer" : 0,
            "byteLength" : 160608,
            "byteOffset" : 481824
        },
        {
            "buffer" : 0,
            "byteLength" : 203520,
            "byteOffset" : 642432
        }
    ],
    "buffers" : [
        {
            "byteLength" : 845952,
            "uri" : "data:application/octet-stream;base64,"
        }
    ]
}
