{
    "asset" : {
        "generator" : "Khronos glTF Blender I/O v0.9.2",
        "version" : "2.0"
    },
    "scene" : 0,
    "scenes" : [
        {
            "name" : "Scene",
            "nodes" : [
                0
            ]
        }
    ],
    "nodes" : [
        {
            "mesh" : 0,
            "name" : "chair"
        }
    ],
    "meshes" : [
        {
            "name" : "chair",
            "primitives" : [
                {
                    "attributes" : {
                        "POSITION" : 0,
                        "NORMAL" : 1,
                        "TEXCOORD_0" : 2
                    },
                    "indices" : 3
                }
            ]
        }
    ],
    "accessors" : [
        {
            "bufferView" : 0,
            "componentType" : 5126,
            "count" : 838,
            "max" : [
                0.25036630034446716,
                0.9567685127258301,
                0.4265821576118469
            ],
            "min" : [
                -0.25378239154815674,
                0.0017601549625396729,
                -0.06138444319367409
            ],
            "type" : "VEC3"
        },
        {
            "bufferView" : 1,
            "componentType" : 5126,
            "count" : 838,
            "type" : "VEC3"
        },
        {
            "bufferView" : 2,
            "componentType" : 5126,
            "count" : 838,
            "type" : "VEC2"
        },
        {
            "bufferView" : 3,
            "componentType" : 5123,
            "count" : 2046,
            "type" : "SCALAR"
        }
    ],
    "bufferViews" : [
        {
            "buffer" : 0,
            "byteLength" : 10056,
            "byteOffset" : 0
        },
        {
            "buffer" : 0,
            "byteLength" : 10056,
            "byteOffset" : 10056
        },
        {
            "buffer" : 0,
            "byteLength" : 6704,
            "byteOffset" : 20112
        },
        {
            "buffer" : 0,
            "byteLength" : 4092,
            "byteOffset" : 26816
        }
    ],
    "buffers" : [
        {
            "byteLength" : 30908,
            "uri" : "data:application/octet-stream;base64,"
        }
    ]
}
