{
    "asset" : {
        "copyright" : "Kocieba PGS",
        "generator" : "Khronos glTF Blender I/O v0.9.36",
        "version" : "2.0"
    },
    "scene" : 0,
    "scenes" : [
        {
            "name" : "Scene",
            "nodes" : [
                0
            ]
        }
    ],
    "nodes" : [
        {
            "mesh" : 0,
            "name" : "closet_dishwasher",
            "scale" : [
                0.8936441540718079,
                1,
                0.4215497374534607
            ],
            "translation" : [
                -5.104389667510986,
                0.46515485644340515,
                1.01557457447052
            ]
        }
    ],
    "materials" : [
        {
            "doubleSided" : true,
            "name" : "Material",
            "pbrMetallicRoughness" : {
                "baseColorTexture" : {
                    "index" : 0,
                    "texCoord" : 0
                },
                "metallicFactor" : 0,
                "roughnessFactor" : 0.5
            }
        },
        {
            "doubleSided" : true,
            "name" : "wood",
            "pbrMetallicRoughness" : {
                "baseColorTexture" : {
                    "index" : 1,
                    "texCoord" : 0
                },
                "metallicFactor" : 0,
                "roughnessFactor" : 0.5
            }
        },
        {
            "doubleSided" : true,
            "name" : "Material.006",
            "pbrMetallicRoughness" : {
                "baseColorTexture" : {
                    "index" : 2,
                    "texCoord" : 0
                },
                "metallicFactor" : 0.28333336114883423,
                "roughnessFactor" : 0.49166667461395264
            }
        }
    ],
    "meshes" : [
        {
            "name" : "Cube.022",
            "primitives" : [
                {
                    "attributes" : {
                        "POSITION" : 0,
                        "TEXCOORD_0" : 1
                    },
                    "indices" : 2,
                    "material" : 0
                },
                {
                    "attributes" : {
                        "POSITION" : 3,
                        "TEXCOORD_0" : 4
                    },
                    "indices" : 5,
                    "material" : 1
                },
                {
                    "attributes" : {
                        "POSITION" : 6,
                        "TEXCOORD_0" : 7
                    },
                    "indices" : 8,
                    "material" : 2
                }
            ]
        }
    ],
    "textures" : [
        {
            "source" : 0
        },
        {
            "source" : 1
        },
        {
            "source" : 2
        }
    ],
    "images" : [
        {
            "bufferView" : 3,
            "mimeType" : "image/png",
            "name" : "baking"
        },
        {
            "bufferView" : 7,
            "mimeType" : "image/jpeg",
            "name" : "kanapy_seamless"
        },
        {
            "bufferView" : 11,
            "mimeType" : "image/png",
            "name" : "bosch"
        }
    ],
    "accessors" : [
        {
            "bufferView" : 0,
            "componentType" : 5126,
            "count" : 24,
            "max" : [
                1.0417003631591797,
                0.7867170572280884,
                1.0269728899002075
            ],
            "min" : [
                -1.0281113386154175,
                0.7358027696609497,
                -1.0297229290008545
            ],
            "type" : "VEC3"
        },
        {
            "bufferView" : 1,
            "componentType" : 5126,
            "count" : 24,
            "type" : "VEC2"
        },
        {
            "bufferView" : 2,
            "componentType" : 5123,
            "count" : 36,
            "type" : "SCALAR"
        },
        {
            "bufferView" : 4,
            "componentType" : 5126,
            "count" : 42,
            "max" : [
                1.01743483543396,
                0.7358027696609497,
                1.0068092346191406
            ],
            "min" : [
                -1.0281113386154175,
                -0.5806565284729004,
                -1.0095592737197876
            ],
            "type" : "VEC3"
        },
        {
            "bufferView" : 5,
            "componentType" : 5126,
            "count" : 42,
            "type" : "VEC2"
        },
        {
            "bufferView" : 6,
            "componentType" : 5123,
            "count" : 60,
            "type" : "SCALAR"
        },
        {
            "bufferView" : 8,
            "componentType" : 5126,
            "count" : 4,
            "max" : [
                1.01743483543396,
                0.7358027696609497,
                1.0068092346191406
            ],
            "min" : [
                1.0158112049102783,
                0.534518837928772,
                -1.0095592737197876
            ],
            "type" : "VEC3"
        },
        {
            "bufferView" : 9,
            "componentType" : 5126,
            "count" : 4,
            "type" : "VEC2"
        },
        {
            "bufferView" : 10,
            "componentType" : 5123,
            "count" : 6,
            "type" : "SCALAR"
        }
    ],
    "bufferViews" : [
        {
            "buffer" : 0,
            "byteLength" : 288,
            "byteOffset" : 0
        },
        {
            "buffer" : 0,
            "byteLength" : 192,
            "byteOffset" : 288
        },
        {
            "buffer" : 0,
            "byteLength" : 72,
            "byteOffset" : 480
        },
        {
            "buffer" : 0,
            "byteLength" : 2307,
            "byteOffset" : 552
        },
        {
            "buffer" : 0,
            "byteLength" : 504,
            "byteOffset" : 2860
        },
        {
            "buffer" : 0,
            "byteLength" : 336,
            "byteOffset" : 3364
        },
        {
            "buffer" : 0,
            "byteLength" : 120,
            "byteOffset" : 3700
        },
        {
            "buffer" : 0,
            "byteLength" : 136846,
            "byteOffset" : 3820
        },
        {
            "buffer" : 0,
            "byteLength" : 48,
            "byteOffset" : 140668
        },
        {
            "buffer" : 0,
            "byteLength" : 32,
            "byteOffset" : 140716
        },
        {
            "buffer" : 0,
            "byteLength" : 12,
            "byteOffset" : 140748
        },
        {
            "buffer" : 0,
            "byteLength" : 887363,
            "byteOffset" : 140760
        }
    ],
    "buffers" : [
        {
            "byteLength" : 1028124,
            "uri" : "data:application/octet-stream;base64,"
        }
    ]
}
