{
    "asset" : {
        "copyright" : "Kocieba PGS",
        "generator" : "Khronos glTF Blender I/O v0.9.36",
        "version" : "2.0"
    },
    "scene" : 0,
    "scenes" : [
        {
            "name" : "Scene",
            "nodes" : [
                0
            ]
        }
    ],
    "nodes" : [
        {
            "mesh" : 0,
            "name" : "closet_dishwasher",
            "scale" : [
                0.8936441540718079,
                1,
                0.3924819827079773
            ],
            "translation" : [
                -5.12951135635376,
                0.3859752416610718,
                1.1655340194702148
            ]
        }
    ],
    "materials" : [
        {
            "doubleSided" : true,
            "name" : "Material",
            "pbrMetallicRoughness" : {
                "baseColorTexture" : {
                    "index" : 0,
                    "texCoord" : 0
                },
                "metallicFactor" : 0,
                "roughnessFactor" : 0.5
            }
        },
        {
            "doubleSided" : true,
            "name" : "wood",
            "pbrMetallicRoughness" : {
                "baseColorTexture" : {
                    "index" : 1,
                    "texCoord" : 0
                },
                "metallicFactor" : 0,
                "roughnessFactor" : 0.5
            }
        },
        {
            "doubleSided" : true,
            "name" : "Material.006",
            "pbrMetallicRoughness" : {
                "baseColorTexture" : {
                    "index" : 2,
                    "texCoord" : 0
                },
                "metallicFactor" : 0.28333336114883423,
                "roughnessFactor" : 0.49166667461395264
            }
        }
    ],
    "meshes" : [
        {
            "name" : "Cube.022",
            "primitives" : [
                {
                    "attributes" : {
                        "POSITION" : 0,
                        "NORMAL" : 1,
                        "TEXCOORD_0" : 2
                    },
                    "indices" : 3,
                    "material" : 0
                },
                {
                    "attributes" : {
                        "POSITION" : 4,
                        "NORMAL" : 5,
                        "TEXCOORD_0" : 6
                    },
                    "indices" : 7,
                    "material" : 1
                },
                {
                    "attributes" : {
                        "POSITION" : 8,
                        "NORMAL" : 9,
                        "TEXCOORD_0" : 10
                    },
                    "indices" : 11,
                    "material" : 2
                }
            ]
        }
    ],
    "textures" : [
        {
            "source" : 0
        },
        {
            "source" : 1
        },
        {
            "source" : 2
        }
    ],
    "images" : [
        {
            "bufferView" : 4,
            "mimeType" : "image/png",
            "name" : "baking"
        },
        {
            "bufferView" : 9,
            "mimeType" : "image/jpeg",
            "name" : "kanapy_seamless"
        },
        {
            "bufferView" : 14,
            "mimeType" : "image/png",
            "name" : "bosch"
        }
    ],
    "accessors" : [
        {
            "bufferView" : 0,
            "componentType" : 5126,
            "count" : 24,
            "max" : [
                1.0698118209838867,
                0.8658966422080994,
                1.0323206186294556
            ],
            "min" : [
                -0.9999998807907104,
                0.8149823546409607,
                -0.9840478897094727
            ],
            "type" : "VEC3"
        },
        {
            "bufferView" : 1,
            "componentType" : 5126,
            "count" : 24,
            "type" : "VEC3"
        },
        {
            "bufferView" : 2,
            "componentType" : 5126,
            "count" : 24,
            "type" : "VEC2"
        },
        {
            "bufferView" : 3,
            "componentType" : 5123,
            "count" : 36,
            "type" : "SCALAR"
        },
        {
            "bufferView" : 5,
            "componentType" : 5126,
            "count" : 42,
            "max" : [
                1.045546293258667,
                0.8149823546409607,
                1.0323206186294556
            ],
            "min" : [
                -0.9999998807907104,
                -0.5014769434928894,
                -0.9840478897094727
            ],
            "type" : "VEC3"
        },
        {
            "bufferView" : 6,
            "componentType" : 5126,
            "count" : 42,
            "type" : "VEC3"
        },
        {
            "bufferView" : 7,
            "componentType" : 5126,
            "count" : 42,
            "type" : "VEC2"
        },
        {
            "bufferView" : 8,
            "componentType" : 5123,
            "count" : 60,
            "type" : "SCALAR"
        },
        {
            "bufferView" : 10,
            "componentType" : 5126,
            "count" : 4,
            "max" : [
                1.045546293258667,
                0.8149823546409607,
                1.0323206186294556
            ],
            "min" : [
                1.0439226627349854,
                0.613698422908783,
                -0.9840478897094727
            ],
            "type" : "VEC3"
        },
        {
            "bufferView" : 11,
            "componentType" : 5126,
            "count" : 4,
            "type" : "VEC3"
        },
        {
            "bufferView" : 12,
            "componentType" : 5126,
            "count" : 4,
            "type" : "VEC2"
        },
        {
            "bufferView" : 13,
            "componentType" : 5123,
            "count" : 6,
            "type" : "SCALAR"
        }
    ],
    "bufferViews" : [
        {
            "buffer" : 0,
            "byteLength" : 288,
            "byteOffset" : 0
        },
        {
            "buffer" : 0,
            "byteLength" : 288,
            "byteOffset" : 288
        },
        {
            "buffer" : 0,
            "byteLength" : 192,
            "byteOffset" : 576
        },
        {
            "buffer" : 0,
            "byteLength" : 72,
            "byteOffset" : 768
        },
        {
            "buffer" : 0,
            "byteLength" : 94922,
            "byteOffset" : 840
        },
        {
            "buffer" : 0,
            "byteLength" : 504,
            "byteOffset" : 95764
        },
        {
            "buffer" : 0,
            "byteLength" : 504,
            "byteOffset" : 96268
        },
        {
            "buffer" : 0,
            "byteLength" : 336,
            "byteOffset" : 96772
        },
        {
            "buffer" : 0,
            "byteLength" : 120,
            "byteOffset" : 97108
        },
        {
            "buffer" : 0,
            "byteLength" : 204681,
            "byteOffset" : 97228
        },
        {
            "buffer" : 0,
            "byteLength" : 48,
            "byteOffset" : 301912
        },
        {
            "buffer" : 0,
            "byteLength" : 48,
            "byteOffset" : 301960
        },
        {
            "buffer" : 0,
            "byteLength" : 32,
            "byteOffset" : 302008
        },
        {
            "buffer" : 0,
            "byteLength" : 12,
            "byteOffset" : 302040
        },
        {
            "buffer" : 0,
            "byteLength" : 836342,
            "byteOffset" : 302052
        }
    ],
    "buffers" : [
        {
            "byteLength" : 1138396,
            "uri" : "data:application/octet-stream;base64,"
        }
    ]
}
