{
    "asset" : {
        "copyright" : "Kocieba PGS",
        "generator" : "Khronos glTF Blender I/O v0.9.36",
        "version" : "2.0"
    },
    "scene" : 0,
    "scenes" : [
        {
            "name" : "Scene",
            "nodes" : [
                0
            ]
        }
    ],
    "nodes" : [
        {
            "mesh" : 0,
            "name" : "closet_with_sink",
            "scale" : [
                0.8936441540718079,
                1,
                0.4215497374534607
            ],
            "translation" : [
                -5.098862648010254,
                0.580905556678772,
                2.306636095046997
            ]
        }
    ],
    "materials" : [
        {
            "doubleSided" : true,
            "name" : "Material",
            "pbrMetallicRoughness" : {
                "baseColorTexture" : {
                    "index" : 0,
                    "texCoord" : 0
                },
                "metallicFactor" : 0,
                "roughnessFactor" : 0.5
            }
        },
        {
            "doubleSided" : true,
            "name" : "wood",
            "pbrMetallicRoughness" : {
                "baseColorTexture" : {
                    "index" : 1,
                    "texCoord" : 0
                },
                "metallicFactor" : 0,
                "roughnessFactor" : 0.5
            }
        },
        {
            "doubleSided" : true,
            "name" : "Material.002",
            "pbrMetallicRoughness" : {
                "baseColorFactor" : [
                    0,
                    0,
                    0,
                    1
                ],
                "metallicFactor" : 0,
                "roughnessFactor" : 0.5
            }
        },
        {
            "doubleSided" : true,
            "name" : "chrome",
            "pbrMetallicRoughness" : {
                "baseColorFactor" : [
                    0.27383193373680115,
                    0.27383193373680115,
                    0.27383193373680115,
                    1
                ],
                "metallicFactor" : 1,
                "roughnessFactor" : 0.1454545557498932
            }
        },
        {
            "doubleSided" : true,
            "name" : "sink mat",
            "pbrMetallicRoughness" : {
                "baseColorFactor" : [
                    0.03967942297458649,
                    0.03967942297458649,
                    0.03967942297458649,
                    1
                ],
                "metallicFactor" : 0.13333334028720856,
                "roughnessFactor" : 0.4749999940395355
            }
        }
    ],
    "meshes" : [
        {
            "name" : "Cube.021",
            "primitives" : [
                {
                    "attributes" : {
                        "POSITION" : 0,
                        "TEXCOORD_0" : 1
                    },
                    "indices" : 2,
                    "material" : 0
                },
                {
                    "attributes" : {
                        "POSITION" : 3,
                        "TEXCOORD_0" : 4
                    },
                    "indices" : 5,
                    "material" : 1
                },
                {
                    "attributes" : {
                        "POSITION" : 6,
                        "TEXCOORD_0" : 7
                    },
                    "indices" : 8,
                    "material" : 2
                },
                {
                    "attributes" : {
                        "POSITION" : 9,
                        "TEXCOORD_0" : 10
                    },
                    "indices" : 11,
                    "material" : 3
                },
                {
                    "attributes" : {
                        "POSITION" : 12,
                        "TEXCOORD_0" : 13
                    },
                    "indices" : 14,
                    "material" : 3
                },
                {
                    "attributes" : {
                        "POSITION" : 15,
                        "TEXCOORD_0" : 16
                    },
                    "indices" : 17,
                    "material" : 3
                },
                {
                    "attributes" : {
                        "POSITION" : 18,
                        "TEXCOORD_0" : 19
                    },
                    "indices" : 20,
                    "material" : 4
                }
            ]
        }
    ],
    "textures" : [
        {
            "source" : 0
        },
        {
            "source" : 1
        }
    ],
    "images" : [
        {
            "bufferView" : 3,
            "mimeType" : "image/png",
            "name" : "baking"
        },
        {
            "bufferView" : 7,
            "mimeType" : "image/jpeg",
            "name" : "kanapy_seamless"
        }
    ],
    "accessors" : [
        {
            "bufferView" : 0,
            "componentType" : 5126,
            "count" : 48,
            "max" : [
                1.035515546798706,
                0.670966386795044,
                2.019493341445923
            ],
            "min" : [
                -1.0342961549758911,
                0.6200520992279053,
                -2.0964977741241455
            ],
            "type" : "VEC3"
        },
        {
            "bufferView" : 1,
            "componentType" : 5126,
            "count" : 48,
            "type" : "VEC2"
        },
        {
            "bufferView" : 2,
            "componentType" : 5123,
            "count" : 120,
            "type" : "SCALAR"
        },
        {
            "bufferView" : 4,
            "componentType" : 5126,
            "count" : 141,
            "max" : [
                1.009842038154602,
                0.6200520992279053,
                2.019493341445923
            ],
            "min" : [
                -1.0342961549758911,
                -0.6964072585105896,
                -2.055845022201538
            ],
            "type" : "VEC3"
        },
        {
            "bufferView" : 5,
            "componentType" : 5126,
            "count" : 141,
            "type" : "VEC2"
        },
        {
            "bufferView" : 6,
            "componentType" : 5123,
            "count" : 237,
            "type" : "SCALAR"
        },
        {
            "bufferView" : 8,
            "componentType" : 5126,
            "count" : 136,
            "max" : [
                1.076872706413269,
                0.5668710470199585,
                1.7906010150909424
            ],
            "min" : [
                1.0098422765731812,
                0.547601580619812,
                -1.8414115905761719
            ],
            "type" : "VEC3"
        },
        {
            "bufferView" : 9,
            "componentType" : 5126,
            "count" : 136,
            "type" : "VEC2"
        },
        {
            "bufferView" : 10,
            "componentType" : 5123,
            "count" : 264,
            "type" : "SCALAR"
        },
        {
            "bufferView" : 11,
            "componentType" : 5126,
            "count" : 65535,
            "max" : [
                0.05407392978668213,
                0.8281987905502319,
                0.9491240978240967
            ],
            "min" : [
                -0.7765424847602844,
                0.43244701623916626,
                -0.9882819056510925
            ],
            "type" : "VEC3"
        },
        {
            "bufferView" : 12,
            "componentType" : 5126,
            "count" : 65535,
            "type" : "VEC2"
        },
        {
            "bufferView" : 13,
            "componentType" : 5123,
            "count" : 373509,
            "type" : "SCALAR"
        },
        {
            "bufferView" : 14,
            "componentType" : 5126,
            "count" : 8696,
            "max" : [
                0.019937992095947266,
                0.4494789242744446,
                -0.4911908507347107
            ],
            "min" : [
                -0.17226070165634155,
                0.4331744909286499,
                -0.9269011616706848
            ],
            "type" : "VEC3"
        },
        {
            "bufferView" : 15,
            "componentType" : 5126,
            "count" : 8696,
            "type" : "VEC2"
        },
        {
            "bufferView" : 16,
            "componentType" : 5123,
            "count" : 44424,
            "type" : "SCALAR"
        },
        {
            "bufferView" : 17,
            "componentType" : 5126,
            "count" : 4847,
            "max" : [
                0.020226851105690002,
                0.44947075843811035,
                -0.49054282903671265
            ],
            "min" : [
                -0.17229220271110535,
                0.4328575134277344,
                -0.927513062953949
            ],
            "type" : "VEC3"
        },
        {
            "bufferView" : 18,
            "componentType" : 5126,
            "count" : 4847,
            "type" : "VEC2"
        },
        {
            "bufferView" : 19,
            "componentType" : 5123,
            "count" : 14574,
            "type" : "SCALAR"
        },
        {
            "bufferView" : 20,
            "componentType" : 5126,
            "count" : 15655,
            "max" : [
                0.7542065382003784,
                0.6755202412605286,
                1.8433151245117188
            ],
            "min" : [
                -0.8283793926239014,
                0.43980538845062256,
                -1.8824729919433594
            ],
            "type" : "VEC3"
        },
        {
            "bufferView" : 21,
            "componentType" : 5126,
            "count" : 15655,
            "type" : "VEC2"
        },
        {
            "bufferView" : 22,
            "componentType" : 5123,
            "count" : 86016,
            "type" : "SCALAR"
        }
    ],
    "bufferViews" : [
        {
            "buffer" : 0,
            "byteLength" : 576,
            "byteOffset" : 0
        },
        {
            "buffer" : 0,
            "byteLength" : 384,
            "byteOffset" : 576
        },
        {
            "buffer" : 0,
            "byteLength" : 240,
            "byteOffset" : 960
        },
        {
            "buffer" : 0,
            "byteLength" : 2307,
            "byteOffset" : 1200
        },
        {
            "buffer" : 0,
            "byteLength" : 1692,
            "byteOffset" : 3508
        },
        {
            "buffer" : 0,
            "byteLength" : 1128,
            "byteOffset" : 5200
        },
        {
            "buffer" : 0,
            "byteLength" : 474,
            "byteOffset" : 6328
        },
        {
            "buffer" : 0,
            "byteLength" : 136846,
            "byteOffset" : 6804
        },
        {
            "buffer" : 0,
            "byteLength" : 1632,
            "byteOffset" : 143652
        },
        {
            "buffer" : 0,
            "byteLength" : 1088,
            "byteOffset" : 145284
        },
        {
            "buffer" : 0,
            "byteLength" : 528,
            "byteOffset" : 146372
        },
        {
            "buffer" : 0,
            "byteLength" : 786420,
            "byteOffset" : 146900
        },
        {
            "buffer" : 0,
            "byteLength" : 524280,
            "byteOffset" : 933320
        },
        {
            "buffer" : 0,
            "byteLength" : 747018,
            "byteOffset" : 1457600
        },
        {
            "buffer" : 0,
            "byteLength" : 104352,
            "byteOffset" : 2204620
        },
        {
            "buffer" : 0,
            "byteLength" : 69568,
            "byteOffset" : 2308972
        },
        {
            "buffer" : 0,
            "byteLength" : 88848,
            "byteOffset" : 2378540
        },
        {
            "buffer" : 0,
            "byteLength" : 58164,
            "byteOffset" : 2467388
        },
        {
            "buffer" : 0,
            "byteLength" : 38776,
            "byteOffset" : 2525552
        },
        {
            "buffer" : 0,
            "byteLength" : 29148,
            "byteOffset" : 2564328
        },
        {
            "buffer" : 0,
            "byteLength" : 187860,
            "byteOffset" : 2593476
        },
        {
            "buffer" : 0,
            "byteLength" : 125240,
            "byteOffset" : 2781336
        },
        {
            "buffer" : 0,
            "byteLength" : 172032,
            "byteOffset" : 2906576
        }
    ],
    "buffers" : [
        {
            "byteLength" : 3078608,
            "uri" : "data:application/octet-stream;base64,"
        }
    ]
}
