{
    "asset" : {
        "copyright" : "Kocieba PGS",
        "generator" : "Khronos glTF Blender I/O v0.9.36",
        "version" : "2.0"
    },
    "scene" : 0,
    "scenes" : [
        {
            "name" : "Scene",
            "nodes" : [
                0
            ]
        }
    ],
    "nodes" : [
        {
            "mesh" : 0,
            "name" : "simple_closet",
            "scale" : [
                0.8936441540718079,
                1,
                0.3924819827079773
            ],
            "translation" : [
                -5.12951135635376,
                0.3859752416610718,
                3.5406992435455322
            ]
        }
    ],
    "materials" : [
        {
            "doubleSided" : true,
            "name" : "Material",
            "pbrMetallicRoughness" : {
                "baseColorTexture" : {
                    "index" : 0,
                    "texCoord" : 0
                },
                "metallicFactor" : 0,
                "roughnessFactor" : 0.5
            }
        },
        {
            "doubleSided" : true,
            "name" : "wood",
            "pbrMetallicRoughness" : {
                "baseColorTexture" : {
                    "index" : 1,
                    "texCoord" : 0
                },
                "metallicFactor" : 0,
                "roughnessFactor" : 0.5
            }
        },
        {
            "doubleSided" : true,
            "name" : "Material.002",
            "pbrMetallicRoughness" : {
                "baseColorFactor" : [
                    0,
                    0,
                    0,
                    1
                ],
                "metallicFactor" : 0,
                "roughnessFactor" : 0.5
            }
        }
    ],
    "meshes" : [
        {
            "name" : "Cube.019",
            "primitives" : [
                {
                    "attributes" : {
                        "POSITION" : 0,
                        "NORMAL" : 1,
                        "TEXCOORD_0" : 2
                    },
                    "indices" : 3,
                    "material" : 0
                },
                {
                    "attributes" : {
                        "POSITION" : 4,
                        "NORMAL" : 5,
                        "TEXCOORD_0" : 6
                    },
                    "indices" : 7,
                    "material" : 1
                },
                {
                    "attributes" : {
                        "POSITION" : 8,
                        "NORMAL" : 9,
                        "TEXCOORD_0" : 10
                    },
                    "indices" : 11,
                    "material" : 2
                }
            ]
        }
    ],
    "textures" : [
        {
            "source" : 0
        },
        {
            "source" : 1
        }
    ],
    "images" : [
        {
            "bufferView" : 4,
            "mimeType" : "image/png",
            "name" : "baking"
        },
        {
            "bufferView" : 9,
            "mimeType" : "image/jpeg",
            "name" : "kanapy_seamless"
        }
    ],
    "accessors" : [
        {
            "bufferView" : 0,
            "componentType" : 5126,
            "count" : 24,
            "max" : [
                1.0698121786117554,
                0.8658966422080994,
                1.0323195457458496
            ],
            "min" : [
                -0.9999993443489075,
                0.8149823546409607,
                -0.9840487837791443
            ],
            "type" : "VEC3"
        },
        {
            "bufferView" : 1,
            "componentType" : 5126,
            "count" : 24,
            "type" : "VEC3"
        },
        {
            "bufferView" : 2,
            "componentType" : 5126,
            "count" : 24,
            "type" : "VEC2"
        },
        {
            "bufferView" : 3,
            "componentType" : 5123,
            "count" : 36,
            "type" : "SCALAR"
        },
        {
            "bufferView" : 5,
            "componentType" : 5126,
            "count" : 136,
            "max" : [
                1.044137716293335,
                0.8149823546409607,
                1.0323206186294556
            ],
            "min" : [
                -0.9999998807907104,
                -0.5014769434928894,
                -0.9840478897094727
            ],
            "type" : "VEC3"
        },
        {
            "bufferView" : 6,
            "componentType" : 5126,
            "count" : 136,
            "type" : "VEC3"
        },
        {
            "bufferView" : 7,
            "componentType" : 5126,
            "count" : 136,
            "type" : "VEC2"
        },
        {
            "bufferView" : 8,
            "componentType" : 5123,
            "count" : 210,
            "type" : "SCALAR"
        },
        {
            "bufferView" : 10,
            "componentType" : 5126,
            "count" : 258,
            "max" : [
                1.1111689805984497,
                0.7618013620376587,
                0.8434813022613525
            ],
            "min" : [
                1.0441385507583618,
                -0.05264371633529663,
                -0.7696145176887512
            ],
            "type" : "VEC3"
        },
        {
            "bufferView" : 11,
            "componentType" : 5126,
            "count" : 258,
            "type" : "VEC3"
        },
        {
            "bufferView" : 12,
            "componentType" : 5126,
            "count" : 258,
            "type" : "VEC2"
        },
        {
            "bufferView" : 13,
            "componentType" : 5123,
            "count" : 396,
            "type" : "SCALAR"
        }
    ],
    "bufferViews" : [
        {
            "buffer" : 0,
            "byteLength" : 288,
            "byteOffset" : 0
        },
        {
            "buffer" : 0,
            "byteLength" : 288,
            "byteOffset" : 288
        },
        {
            "buffer" : 0,
            "byteLength" : 192,
            "byteOffset" : 576
        },
        {
            "buffer" : 0,
            "byteLength" : 72,
            "byteOffset" : 768
        },
        {
            "buffer" : 0,
            "byteLength" : 94922,
            "byteOffset" : 840
        },
        {
            "buffer" : 0,
            "byteLength" : 1632,
            "byteOffset" : 95764
        },
        {
            "buffer" : 0,
            "byteLength" : 1632,
            "byteOffset" : 97396
        },
        {
            "buffer" : 0,
            "byteLength" : 1088,
            "byteOffset" : 99028
        },
        {
            "buffer" : 0,
            "byteLength" : 420,
            "byteOffset" : 100116
        },
        {
            "buffer" : 0,
            "byteLength" : 204681,
            "byteOffset" : 100536
        },
        {
            "buffer" : 0,
            "byteLength" : 3096,
            "byteOffset" : 305220
        },
        {
            "buffer" : 0,
            "byteLength" : 3096,
            "byteOffset" : 308316
        },
        {
            "buffer" : 0,
            "byteLength" : 2064,
            "byteOffset" : 311412
        },
        {
            "buffer" : 0,
            "byteLength" : 792,
            "byteOffset" : 313476
        }
    ],
    "buffers" : [
        {
            "byteLength" : 314268,
            "uri" : "data:application/octet-stream;base64,"
        }
    ]
}
