{
    "asset" : {
        "copyright" : "Kocieba PGS",
        "generator" : "Khronos glTF Blender I/O v0.9.36",
        "version" : "2.0"
    },
    "scene" : 0,
    "scenes" : [
        {
            "name" : "Scene",
            "nodes" : [
                0
            ]
        }
    ],
    "nodes" : [
        {
            "mesh" : 0,
            "name" : "simple_closet",
            "scale" : [
                0.8936441540718079,
                1,
                0.4215497374534607
            ],
            "translation" : [
                -5.105078220367432,
                0.46491652727127075,
                3.5666847229003906
            ]
        }
    ],
    "materials" : [
        {
            "doubleSided" : true,
            "name" : "Material",
            "pbrMetallicRoughness" : {
                "baseColorTexture" : {
                    "index" : 0,
                    "texCoord" : 0
                },
                "metallicFactor" : 0,
                "roughnessFactor" : 0.5
            }
        },
        {
            "doubleSided" : true,
            "name" : "wood",
            "pbrMetallicRoughness" : {
                "baseColorTexture" : {
                    "index" : 1,
                    "texCoord" : 0
                },
                "metallicFactor" : 0,
                "roughnessFactor" : 0.5
            }
        },
        {
            "doubleSided" : true,
            "name" : "Material.002",
            "pbrMetallicRoughness" : {
                "baseColorFactor" : [
                    0,
                    0,
                    0,
                    1
                ],
                "metallicFactor" : 0,
                "roughnessFactor" : 0.5
            }
        }
    ],
    "meshes" : [
        {
            "name" : "Cube.019",
            "primitives" : [
                {
                    "attributes" : {
                        "POSITION" : 0,
                        "TEXCOORD_0" : 1
                    },
                    "indices" : 2,
                    "material" : 0
                },
                {
                    "attributes" : {
                        "POSITION" : 3,
                        "TEXCOORD_0" : 4
                    },
                    "indices" : 5,
                    "material" : 1
                },
                {
                    "attributes" : {
                        "POSITION" : 6,
                        "TEXCOORD_0" : 7
                    },
                    "indices" : 8,
                    "material" : 2
                }
            ]
        }
    ],
    "textures" : [
        {
            "source" : 0
        },
        {
            "source" : 1
        }
    ],
    "images" : [
        {
            "bufferView" : 3,
            "mimeType" : "image/png",
            "name" : "baking"
        },
        {
            "bufferView" : 7,
            "mimeType" : "image/jpeg",
            "name" : "kanapy_seamless"
        }
    ],
    "accessors" : [
        {
            "bufferView" : 0,
            "componentType" : 5126,
            "count" : 24,
            "max" : [
                1.0424712896347046,
                0.7869553565979004,
                1.0268861055374146
            ],
            "min" : [
                -1.027340292930603,
                0.7360410690307617,
                -1.029809594154358
            ],
            "type" : "VEC3"
        },
        {
            "bufferView" : 1,
            "componentType" : 5126,
            "count" : 24,
            "type" : "VEC2"
        },
        {
            "bufferView" : 2,
            "componentType" : 5123,
            "count" : 36,
            "type" : "SCALAR"
        },
        {
            "bufferView" : 4,
            "componentType" : 5126,
            "count" : 136,
            "max" : [
                1.0167968273162842,
                0.7360410690307617,
                1.0067235231399536
            ],
            "min" : [
                -1.0273407697677612,
                -0.5804182291030884,
                -1.0096449851989746
            ],
            "type" : "VEC3"
        },
        {
            "bufferView" : 5,
            "componentType" : 5126,
            "count" : 136,
            "type" : "VEC2"
        },
        {
            "bufferView" : 6,
            "componentType" : 5123,
            "count" : 210,
            "type" : "SCALAR"
        },
        {
            "bufferView" : 8,
            "componentType" : 5126,
            "count" : 258,
            "max" : [
                1.083828091621399,
                0.6828600764274597,
                0.8178841471672058
            ],
            "min" : [
                1.016797661781311,
                -0.1315850168466568,
                -0.795211672782898
            ],
            "type" : "VEC3"
        },
        {
            "bufferView" : 9,
            "componentType" : 5126,
            "count" : 258,
            "type" : "VEC2"
        },
        {
            "bufferView" : 10,
            "componentType" : 5123,
            "count" : 396,
            "type" : "SCALAR"
        }
    ],
    "bufferViews" : [
        {
            "buffer" : 0,
            "byteLength" : 288,
            "byteOffset" : 0
        },
        {
            "buffer" : 0,
            "byteLength" : 192,
            "byteOffset" : 288
        },
        {
            "buffer" : 0,
            "byteLength" : 72,
            "byteOffset" : 480
        },
        {
            "buffer" : 0,
            "byteLength" : 2307,
            "byteOffset" : 552
        },
        {
            "buffer" : 0,
            "byteLength" : 1632,
            "byteOffset" : 2860
        },
        {
            "buffer" : 0,
            "byteLength" : 1088,
            "byteOffset" : 4492
        },
        {
            "buffer" : 0,
            "byteLength" : 420,
            "byteOffset" : 5580
        },
        {
            "buffer" : 0,
            "byteLength" : 136846,
            "byteOffset" : 6000
        },
        {
            "buffer" : 0,
            "byteLength" : 3096,
            "byteOffset" : 142848
        },
        {
            "buffer" : 0,
            "byteLength" : 2064,
            "byteOffset" : 145944
        },
        {
            "buffer" : 0,
            "byteLength" : 792,
            "byteOffset" : 148008
        }
    ],
    "buffers" : [
        {
            "byteLength" : 148800,
            "uri" : "data:application/octet-stream;base64,"
        }
    ]
}
