{
    "asset" : {
        "copyright" : "Kocieba PGS",
        "generator" : "Khronos glTF Blender I/O v0.9.36",
        "version" : "2.0"
    },
    "scene" : 0,
    "scenes" : [
        {
            "name" : "Scene",
            "nodes" : [
                0,
                1,
                2
            ]
        }
    ],
    "nodes" : [
        {
            "mesh" : 0,
            "name" : "Cube.001",
            "scale" : [
                1,
                0.6000000238418579,
                1
            ],
            "translation" : [
                1.0263466835021973,
                -0.11549459397792816,
                -7.517952919006348
            ]
        },
        {
            "mesh" : 1,
            "name" : "Cube.002",
            "scale" : [
                1,
                0.6000000238418579,
                1
            ],
            "translation" : [
                0.1289825439453125,
                0.600652277469635,
                -0.055629193782806396
            ]
        },
        {
            "mesh" : 2,
            "name" : "Cube",
            "scale" : [
                0.19999998807907104,
                0.6000000238418579,
                1
            ],
            "translation" : [
                0.14218854904174805,
                0.5281758904457092,
                -0.0556301474571228
            ]
        }
    ],
    "materials" : [
        {
            "doubleSided" : true,
            "name" : "wood",
            "pbrMetallicRoughness" : {
                "baseColorTexture" : {
                    "index" : 0,
                    "texCoord" : 0
                },
                "metallicFactor" : 0,
                "roughnessFactor" : 0.5
            }
        },
        {
            "doubleSided" : true,
            "name" : "couch",
            "pbrMetallicRoughness" : {
                "baseColorFactor" : [
                    0.8000000715255737,
                    0.1337665170431137,
                    0,
                    1
                ],
                "metallicFactor" : 0,
                "roughnessFactor" : 0.5
            }
        }
    ],
    "meshes" : [
        {
            "name" : "Cube.002",
            "primitives" : [
                {
                    "attributes" : {
                        "POSITION" : 0,
                        "NORMAL" : 1,
                        "TEXCOORD_0" : 2
                    },
                    "indices" : 3,
                    "material" : 0
                }
            ]
        },
        {
            "name" : "Cube.000",
            "primitives" : [
                {
                    "attributes" : {
                        "POSITION" : 4,
                        "NORMAL" : 5,
                        "TEXCOORD_0" : 6
                    },
                    "indices" : 7,
                    "material" : 1
                }
            ]
        },
        {
            "name" : "Cube",
            "primitives" : [
                {
                    "attributes" : {
                        "POSITION" : 8,
                        "NORMAL" : 9,
                        "TEXCOORD_0" : 10
                    },
                    "indices" : 11,
                    "material" : 1
                }
            ]
        }
    ],
    "textures" : [
        {
            "source" : 0
        }
    ],
    "images" : [
        {
            "bufferView" : 4,
            "mimeType" : "image/jpeg",
            "name" : "kanapy_seamless"
        }
    ],
    "accessors" : [
        {
            "bufferView" : 0,
            "componentType" : 5126,
            "count" : 83,
            "max" : [
                -0.19855690002441406,
                0.9999926090240479,
                9.101158142089844
            ],
            "min" : [
                -1.029487133026123,
                -7.420778274536133e-06,
                5.792672157287598
            ],
            "type" : "VEC3"
        },
        {
            "bufferView" : 1,
            "componentType" : 5126,
            "count" : 83,
            "type" : "VEC3"
        },
        {
            "bufferView" : 2,
            "componentType" : 5126,
            "count" : 83,
            "type" : "VEC2"
        },
        {
            "bufferView" : 3,
            "componentType" : 5123,
            "count" : 141,
            "type" : "SCALAR"
        },
        {
            "bufferView" : 5,
            "componentType" : 5126,
            "count" : 8966,
            "max" : [
                0.8020009994506836,
                0.00046594158629886806,
                1.2633192539215088
            ],
            "min" : [
                0.012645692564547062,
                -0.6977232098579407,
                -1.2633192539215088
            ],
            "type" : "VEC3"
        },
        {
            "bufferView" : 6,
            "componentType" : 5126,
            "count" : 8966,
            "type" : "VEC3"
        },
        {
            "bufferView" : 7,
            "componentType" : 5126,
            "count" : 8966,
            "type" : "VEC2"
        },
        {
            "bufferView" : 8,
            "componentType" : 5123,
            "count" : 32640,
            "type" : "SCALAR"
        },
        {
            "bufferView" : 9,
            "componentType" : 5126,
            "count" : 16779,
            "max" : [
                -0.0001885144883999601,
                1.1207941770553589,
                1.2595856189727783
            ],
            "min" : [
                -0.7075501680374146,
                -0.17231974005699158,
                -1.2595853805541992
            ],
            "type" : "VEC3"
        },
        {
            "bufferView" : 10,
            "componentType" : 5126,
            "count" : 16779,
            "type" : "VEC3"
        },
        {
            "bufferView" : 11,
            "componentType" : 5126,
            "count" : 16779,
            "type" : "VEC2"
        },
        {
            "bufferView" : 12,
            "componentType" : 5123,
            "count" : 75264,
            "type" : "SCALAR"
        }
    ],
    "bufferViews" : [
        {
            "buffer" : 0,
            "byteLength" : 996,
            "byteOffset" : 0
        },
        {
            "buffer" : 0,
            "byteLength" : 996,
            "byteOffset" : 996
        },
        {
            "buffer" : 0,
            "byteLength" : 664,
            "byteOffset" : 1992
        },
        {
            "buffer" : 0,
            "byteLength" : 282,
            "byteOffset" : 2656
        },
        {
            "buffer" : 0,
            "byteLength" : 204681,
            "byteOffset" : 2940
        },
        {
            "buffer" : 0,
            "byteLength" : 107592,
            "byteOffset" : 207624
        },
        {
            "buffer" : 0,
            "byteLength" : 107592,
            "byteOffset" : 315216
        },
        {
            "buffer" : 0,
            "byteLength" : 71728,
            "byteOffset" : 422808
        },
        {
            "buffer" : 0,
            "byteLength" : 65280,
            "byteOffset" : 494536
        },
        {
            "buffer" : 0,
            "byteLength" : 201348,
            "byteOffset" : 559816
        },
        {
            "buffer" : 0,
            "byteLength" : 201348,
            "byteOffset" : 761164
        },
        {
            "buffer" : 0,
            "byteLength" : 134232,
            "byteOffset" : 962512
        },
        {
            "buffer" : 0,
            "byteLength" : 150528,
            "byteOffset" : 1096744
        }
    ],
    "buffers" : [
        {
            "byteLength" : 1247272,
            "uri" : "data:application/octet-stream;base64,"
        }
    ]
}
