{
    "asset" : {
        "copyright" : "Kocieba PGS",
        "generator" : "Khronos glTF Blender I/O v0.9.36",
        "version" : "2.0"
    },
    "scene" : 0,
    "scenes" : [
        {
            "name" : "Scene",
            "nodes" : [
                0,
                1,
                2
            ]
        }
    ],
    "nodes" : [
        {
            "mesh" : 0,
            "name" : "Cube.001",
            "scale" : [
                1,
                0.5,
                1
            ],
            "translation" : [
                -4.7530198097229,
                0.14499133825302124,
                15.479391098022461
            ]
        },
        {
            "mesh" : 1,
            "name" : "Cube.002",
            "scale" : [
                1,
                0.5,
                1
            ],
            "translation" : [
                -4.540809154510498,
                0.34146207571029663,
                15.486029624938965
            ]
        },
        {
            "mesh" : 2,
            "name" : "Cube",
            "scale" : [
                0.19999998807907104,
                0.5,
                1
            ],
            "translation" : [
                -5.109827518463135,
                0.6565912365913391,
                15.486027717590332
            ]
        }
    ],
    "materials" : [
        {
            "doubleSided" : true,
            "name" : "wood",
            "pbrMetallicRoughness" : {
                "baseColorTexture" : {
                    "index" : 0,
                    "texCoord" : 0
                },
                "metallicFactor" : 0,
                "roughnessFactor" : 0.5
            }
        },
        {
            "doubleSided" : true,
            "name" : "couch",
            "pbrMetallicRoughness" : {
                "baseColorFactor" : [
                    0.8000000715255737,
                    0.1337665170431137,
                    0,
                    1
                ],
                "metallicFactor" : 0,
                "roughnessFactor" : 0.5
            }
        }
    ],
    "meshes" : [
        {
            "name" : "Cube.002",
            "primitives" : [
                {
                    "attributes" : {
                        "POSITION" : 0,
                        "NORMAL" : 1,
                        "TEXCOORD_0" : 2
                    },
                    "indices" : 3,
                    "material" : 0
                }
            ]
        },
        {
            "name" : "Cube.000",
            "primitives" : [
                {
                    "attributes" : {
                        "POSITION" : 4,
                        "NORMAL" : 5,
                        "TEXCOORD_0" : 6
                    },
                    "indices" : 7,
                    "material" : 1
                }
            ]
        },
        {
            "name" : "Cube",
            "primitives" : [
                {
                    "attributes" : {
                        "POSITION" : 8,
                        "NORMAL" : 9,
                        "TEXCOORD_0" : 10
                    },
                    "indices" : 11,
                    "material" : 1
                }
            ]
        }
    ],
    "textures" : [
        {
            "source" : 0
        }
    ],
    "images" : [
        {
            "bufferView" : 4,
            "mimeType" : "image/jpeg",
            "name" : "kanapy_seamless"
        }
    ],
    "accessors" : [
        {
            "bufferView" : 0,
            "componentType" : 5126,
            "count" : 83,
            "max" : [
                0.41546523571014404,
                0.5000001192092896,
                1.6454720497131348
            ],
            "min" : [
                -0.41546499729156494,
                -0.49999988079071045,
                -1.6630139350891113
            ],
            "type" : "VEC3"
        },
        {
            "bufferView" : 1,
            "componentType" : 5126,
            "count" : 83,
            "type" : "VEC3"
        },
        {
            "bufferView" : 2,
            "componentType" : 5126,
            "count" : 83,
            "type" : "VEC2"
        },
        {
            "bufferView" : 3,
            "componentType" : 5123,
            "count" : 141,
            "type" : "SCALAR"
        },
        {
            "bufferView" : 5,
            "componentType" : 5126,
            "count" : 2903,
            "max" : [
                0.3063918948173523,
                0.30111005902290344,
                1.263318657875061
            ],
            "min" : [
                -0.4829069674015045,
                -0.39707908034324646,
                -1.2633198499679565
            ],
            "type" : "VEC3"
        },
        {
            "bufferView" : 6,
            "componentType" : 5126,
            "count" : 2903,
            "type" : "VEC3"
        },
        {
            "bufferView" : 7,
            "componentType" : 5126,
            "count" : 2903,
            "type" : "VEC2"
        },
        {
            "bufferView" : 8,
            "componentType" : 5123,
            "count" : 8160,
            "type" : "SCALAR"
        },
        {
            "bufferView" : 9,
            "componentType" : 5126,
            "count" : 16784,
            "max" : [
                0.43317097425460815,
                0.6703859567642212,
                1.2595852613449097
            ],
            "min" : [
                -0.2741906940937042,
                -0.6227279901504517,
                -1.2595857381820679
            ],
            "type" : "VEC3"
        },
        {
            "bufferView" : 10,
            "componentType" : 5126,
            "count" : 16784,
            "type" : "VEC3"
        },
        {
            "bufferView" : 11,
            "componentType" : 5126,
            "count" : 16784,
            "type" : "VEC2"
        },
        {
            "bufferView" : 12,
            "componentType" : 5123,
            "count" : 75264,
            "type" : "SCALAR"
        }
    ],
    "bufferViews" : [
        {
            "buffer" : 0,
            "byteLength" : 996,
            "byteOffset" : 0
        },
        {
            "buffer" : 0,
            "byteLength" : 996,
            "byteOffset" : 996
        },
        {
            "buffer" : 0,
            "byteLength" : 664,
            "byteOffset" : 1992
        },
        {
            "buffer" : 0,
            "byteLength" : 282,
            "byteOffset" : 2656
        },
        {
            "buffer" : 0,
            "byteLength" : 204681,
            "byteOffset" : 2940
        },
        {
            "buffer" : 0,
            "byteLength" : 34836,
            "byteOffset" : 207624
        },
        {
            "buffer" : 0,
            "byteLength" : 34836,
            "byteOffset" : 242460
        },
        {
            "buffer" : 0,
            "byteLength" : 23224,
            "byteOffset" : 277296
        },
        {
            "buffer" : 0,
            "byteLength" : 16320,
            "byteOffset" : 300520
        },
        {
            "buffer" : 0,
            "byteLength" : 201408,
            "byteOffset" : 316840
        },
        {
            "buffer" : 0,
            "byteLength" : 201408,
            "byteOffset" : 518248
        },
        {
            "buffer" : 0,
            "byteLength" : 134272,
            "byteOffset" : 719656
        },
        {
            "buffer" : 0,
            "byteLength" : 150528,
            "byteOffset" : 853928
        }
    ],
    "buffers" : [
        {
            "byteLength" : 1004456,
            "uri" : "data:application/octet-stream;base64,"
        }
    ]
}
