{
    "asset" : {
        "copyright" : "Kocieba PGS",
        "generator" : "Khronos glTF Blender I/O v0.9.36",
        "version" : "2.0"
    },
    "scene" : 0,
    "scenes" : [
        {
            "name" : "Scene",
            "nodes" : [
                0,
                1,
                2
            ]
        }
    ],
    "nodes" : [
        {
            "mesh" : 0,
            "name" : "Cube.001",
            "rotation" : [
                0.7071068286895752,
                0,
                0,
                0.7071067094802856
            ],
            "scale" : [
                1,
                1,
                0.5000000596046448
            ],
            "translation" : [
                0.0015577562153339386,
                0.25225237011909485,
                -0.006587192416191101
            ]
        },
        {
            "mesh" : 1,
            "name" : "Cube.002",
            "rotation" : [
                0.7071068286895752,
                0,
                0,
                0.7071067094802856
            ],
            "scale" : [
                1,
                1,
                0.5000000596046448
            ],
            "translation" : [
                0.21376840770244598,
                0.4487231373786926,
                5.1334500312805176e-05
            ]
        },
        {
            "mesh" : 2,
            "name" : "Cube",
            "rotation" : [
                0.7071068286895752,
                0,
                0,
                0.7071067094802856
            ],
            "scale" : [
                0.19999998807907104,
                1,
                0.5000000596046448
            ],
            "translation" : [
                -0.35524994134902954,
                0.7638523578643799,
                4.9427151679992676e-05
            ]
        }
    ],
    "materials" : [
        {
            "doubleSided" : true,
            "name" : "wood",
            "pbrMetallicRoughness" : {
                "baseColorTexture" : {
                    "index" : 0,
                    "texCoord" : 0
                },
                "metallicFactor" : 0,
                "roughnessFactor" : 0.5
            }
        },
        {
            "doubleSided" : true,
            "name" : "couch",
            "pbrMetallicRoughness" : {
                "baseColorFactor" : [
                    0.8000000715255737,
                    0.1337665170431137,
                    0,
                    1
                ],
                "metallicFactor" : 0,
                "roughnessFactor" : 0.5
            }
        }
    ],
    "meshes" : [
        {
            "name" : "Cube.002",
            "primitives" : [
                {
                    "attributes" : {
                        "POSITION" : 0,
                        "NORMAL" : 1,
                        "TEXCOORD_0" : 2
                    },
                    "indices" : 3,
                    "material" : 0
                }
            ]
        },
        {
            "name" : "Cube.000",
            "primitives" : [
                {
                    "attributes" : {
                        "POSITION" : 4,
                        "NORMAL" : 5,
                        "TEXCOORD_0" : 6
                    },
                    "indices" : 7,
                    "material" : 1
                }
            ]
        },
        {
            "name" : "Cube.001",
            "primitives" : [
                {
                    "attributes" : {
                        "POSITION" : 8,
                        "NORMAL" : 9,
                        "TEXCOORD_0" : 10
                    },
                    "indices" : 11,
                    "material" : 1
                }
            ]
        }
    ],
    "textures" : [
        {
            "source" : 0
        }
    ],
    "images" : [
        {
            "bufferView" : 4,
            "mimeType" : "image/png",
            "name" : "Image_0"
        }
    ],
    "accessors" : [
        {
            "bufferView" : 0,
            "componentType" : 5126,
            "count" : 107,
            "max" : [
                0.41546523571014404,
                1.6454720497131348,
                0.49999988079071045
            ],
            "min" : [
                -0.41546499729156494,
                -1.6630139350891113,
                -0.5000001192092896
            ],
            "type" : "VEC3"
        },
        {
            "bufferView" : 1,
            "componentType" : 5126,
            "count" : 107,
            "type" : "VEC3"
        },
        {
            "bufferView" : 2,
            "componentType" : 5126,
            "count" : 107,
            "type" : "VEC2"
        },
        {
            "bufferView" : 3,
            "componentType" : 5123,
            "count" : 141,
            "type" : "SCALAR"
        },
        {
            "bufferView" : 5,
            "componentType" : 5126,
            "count" : 3674,
            "max" : [
                0.3063918948173523,
                1.263318657875061,
                0.39707908034324646
            ],
            "min" : [
                -0.4829069674015045,
                -1.2633198499679565,
                -0.30111005902290344
            ],
            "type" : "VEC3"
        },
        {
            "bufferView" : 6,
            "componentType" : 5126,
            "count" : 3674,
            "type" : "VEC3"
        },
        {
            "bufferView" : 7,
            "componentType" : 5126,
            "count" : 3674,
            "type" : "VEC2"
        },
        {
            "bufferView" : 8,
            "componentType" : 5123,
            "count" : 8160,
            "type" : "SCALAR"
        },
        {
            "bufferView" : 9,
            "componentType" : 5126,
            "count" : 35748,
            "max" : [
                0.43317097425460815,
                1.2595852613449097,
                0.6227279901504517
            ],
            "min" : [
                -0.2741906940937042,
                -1.2595857381820679,
                -0.6703859567642212
            ],
            "type" : "VEC3"
        },
        {
            "bufferView" : 10,
            "componentType" : 5126,
            "count" : 35748,
            "type" : "VEC3"
        },
        {
            "bufferView" : 11,
            "componentType" : 5126,
            "count" : 35748,
            "type" : "VEC2"
        },
        {
            "bufferView" : 12,
            "componentType" : 5123,
            "count" : 75264,
            "type" : "SCALAR"
        }
    ],
    "bufferViews" : [
        {
            "buffer" : 0,
            "byteLength" : 1284,
            "byteOffset" : 0
        },
        {
            "buffer" : 0,
            "byteLength" : 1284,
            "byteOffset" : 1284
        },
        {
            "buffer" : 0,
            "byteLength" : 856,
            "byteOffset" : 2568
        },
        {
            "buffer" : 0,
            "byteLength" : 282,
            "byteOffset" : 3424
        },
        {
            "buffer" : 0,
            "byteLength" : 741941,
            "byteOffset" : 3708
        },
        {
            "buffer" : 0,
            "byteLength" : 44088,
            "byteOffset" : 745652
        },
        {
            "buffer" : 0,
            "byteLength" : 44088,
            "byteOffset" : 789740
        },
        {
            "buffer" : 0,
            "byteLength" : 29392,
            "byteOffset" : 833828
        },
        {
            "buffer" : 0,
            "byteLength" : 16320,
            "byteOffset" : 863220
        },
        {
            "buffer" : 0,
            "byteLength" : 428976,
            "byteOffset" : 879540
        },
        {
            "buffer" : 0,
            "byteLength" : 428976,
            "byteOffset" : 1308516
        },
        {
            "buffer" : 0,
            "byteLength" : 285984,
            "byteOffset" : 1737492
        },
        {
            "buffer" : 0,
            "byteLength" : 150528,
            "byteOffset" : 2023476
        }
    ],
    "buffers" : [
        {
            "byteLength" : 2174004,
            "uri" : "data:application/octet-stream;base64,"
        }
    ]
}
