# Blender v2.79 (sub 0) OBJ File: 'kantyna.blend'
# www.blender.org
mtllib kantyna.mtl
o Plane.001
v -1.568934 0.000000 4.965291
v 0.965518 0.000000 4.982532
v -1.534453 0.000000 -1.637895
v 0.999999 0.000000 -1.620654
vn 0.0000 1.0000 0.0000
usemtl None
s off
f 1//1 2//1 4//1 3//1
o Plane
v -2.241305 0.000000 -1.622041
v 0.879321 0.000000 -1.604801
v -2.224064 0.000000 -4.915071
v 0.234268 -0.074072 -4.915071
v 0.879321 -0.075286 -4.269982
v 0.312020 -0.076282 -4.910368
v 0.388639 -0.078194 -4.896326
v 0.463007 -0.079780 -4.873151
v 0.534039 -0.081018 -4.841180
v 0.600700 -0.081888 -4.800880
v 0.662017 -0.082378 -4.752838
v 0.717097 -0.082482 -4.697755
v 0.765136 -0.082197 -4.636435
v 0.805434 -0.081528 -4.569770
v 0.837403 -0.080485 -4.498734
v 0.860577 -0.079082 -4.424362
v 0.874618 -0.077341 -4.347739
vn 0.0149 0.9998 -0.0140
usemtl None
s off
f 5//2 6//2 9//2 21//2 20//2 19//2 18//2 17//2 16//2 15//2 14//2 13//2 12//2 11//2 10//2 8//2 7//2
