{
    "asset" : {
        "generator" : "Khronos glTF Blender I/O v0.9.21",
        "version" : "2.0"
    },
    "scene" : 0,
    "scenes" : [
        {
            "name" : "Scene",
            "nodes" : [
                0
            ]
        }
    ],
    "nodes" : [
        {
            "mesh" : 0,
            "name" : "lamp_v3"
        }
    ],
    "meshes" : [
        {
            "name" : "lamp_v3",
            "primitives" : [
                {
                    "attributes" : {
                        "POSITION" : 0,
                        "NORMAL" : 1,
                        "TEXCOORD_0" : 2
                    },
                    "indices" : 3
                }
            ]
        }
    ],
    "accessors" : [
        {
            "bufferView" : 0,
            "componentType" : 5126,
            "count" : 564,
            "max" : [
                0.7068740129470825,
                6.248845100402832,
                0.7068741917610168
            ],
            "min" : [
                -0.7068740129470825,
                4.455606937408447,
                -0.7068738341331482
            ],
            "type" : "VEC3"
        },
        {
            "bufferView" : 1,
            "componentType" : 5126,
            "count" : 564,
            "type" : "VEC3"
        },
        {
            "bufferView" : 2,
            "componentType" : 5126,
            "count" : 564,
            "type" : "VEC2"
        },
        {
            "bufferView" : 3,
            "componentType" : 5123,
            "count" : 2676,
            "type" : "SCALAR"
        }
    ],
    "bufferViews" : [
        {
            "buffer" : 0,
            "byteLength" : 6768,
            "byteOffset" : 0
        },
        {
            "buffer" : 0,
            "byteLength" : 6768,
            "byteOffset" : 6768
        },
        {
            "buffer" : 0,
            "byteLength" : 4512,
            "byteOffset" : 13536
        },
        {
            "buffer" : 0,
            "byteLength" : 5352,
            "byteOffset" : 18048
        }
    ],
    "buffers" : [
        {
            "byteLength" : 23400,
            "uri" : "data:application/octet-stream;base64,"
        }
    ]
}
