{
    "asset" : {
        "generator" : "Khronos glTF Blender I/O v0.9.21",
        "version" : "2.0"
    },
    "scene" : 0,
    "scenes" : [
        {
            "name" : "Scene",
            "nodes" : [
                0
            ]
        }
    ],
    "nodes" : [
        {
            "mesh" : 0,
            "name" : "10523_Pool_Table_v1_SG"
        }
    ],
    "materials" : [
        {
            "doubleSided" : true,
            "name" : "10523_Pool_Table_v1",
            "pbrMetallicRoughness" : {
                "baseColorTexture" : {
                    "index" : 0,
                    "texCoord" : 0
                },
                "metallicFactor" : 0,
                "roughnessFactor" : 0.8956292867660522
            }
        }
    ],
    "meshes" : [
        {
            "name" : "10523_Pool_Table_v1_SG",
            "primitives" : [
                {
                    "attributes" : {
                        "POSITION" : 0,
                        "NORMAL" : 1,
                        "TEXCOORD_0" : 2
                    },
                    "indices" : 3,
                    "material" : 0
                }
            ]
        }
    ],
    "textures" : [
        {
            "source" : 0
        }
    ],
    "images" : [
        {
            "bufferView" : 4,
            "mimeType" : "image/jpeg",
            "name" : "pool_table"
        }
    ],
    "accessors" : [
        {
            "bufferView" : 0,
            "componentType" : 5126,
            "count" : 14406,
            "max" : [
                1.0206321477890015,
                1.2300686836242676,
                2.035444498062134
            ],
            "min" : [
                -1.0113643407821655,
                0.008363451808691025,
                -2.0285487174987793
            ],
            "type" : "VEC3"
        },
        {
            "bufferView" : 1,
            "componentType" : 5126,
            "count" : 14406,
            "type" : "VEC3"
        },
        {
            "bufferView" : 2,
            "componentType" : 5126,
            "count" : 14406,
            "type" : "VEC2"
        },
        {
            "bufferView" : 3,
            "componentType" : 5123,
            "count" : 75192,
            "type" : "SCALAR"
        }
    ],
    "bufferViews" : [
        {
            "buffer" : 0,
            "byteLength" : 172872,
            "byteOffset" : 0
        },
        {
            "buffer" : 0,
            "byteLength" : 172872,
            "byteOffset" : 172872
        },
        {
            "buffer" : 0,
            "byteLength" : 115248,
            "byteOffset" : 345744
        },
        {
            "buffer" : 0,
            "byteLength" : 150384,
            "byteOffset" : 460992
        },
        {
            "buffer" : 0,
            "byteLength" : 736324,
            "byteOffset" : 611376
        }
    ],
    "buffers" : [
        {
            "byteLength" : 1347700,
            "uri" : "data:application/octet-stream;base64,"
        }
    ]
}
