{
    "asset" : {
        "generator" : "Khronos glTF Blender I/O v0.9.2",
        "version" : "2.0"
    },
    "scene" : 0,
    "scenes" : [
        {
            "name" : "Scene",
            "nodes" : [
                0
            ]
        }
    ],
    "nodes" : [
        {
            "mesh" : 0,
            "name" : "sofa"
        }
    ],
    "materials" : [
        {
            "name" : "sofa",
            "pbrMetallicRoughness" : {
                "baseColorTexture" : {
                    "index" : 0,
                    "texCoord" : 0
                },
                "metallicFactor" : 0,
                "roughnessFactor" : 0.8956292867660522
            }
        }
    ],
    "meshes" : [
        {
            "name" : "sofa",
            "primitives" : [
                {
                    "attributes" : {
                        "POSITION" : 0,
                        "NORMAL" : 1,
                        "TEXCOORD_0" : 2
                    },
                    "indices" : 3,
                    "material" : 0
                }
            ]
        }
    ],
    "textures" : [
        {
            "source" : 0
        }
    ],
    "images" : [
        {
            "bufferView" : 4,
            "mimeType" : "image/jpeg",
            "name" : "CasualSofa_Diff"
        }
    ],
    "accessors" : [
        {
            "bufferView" : 0,
            "componentType" : 5126,
            "count" : 2755,
            "max" : [
                2.1079421043395996,
                1.0998709201812744,
                0.6353699564933777
            ],
            "min" : [
                -2.1079421043395996,
                -0.0011963020078837872,
                -0.6383628249168396
            ],
            "type" : "VEC3"
        },
        {
            "bufferView" : 1,
            "componentType" : 5126,
            "count" : 2755,
            "type" : "VEC3"
        },
        {
            "bufferView" : 2,
            "componentType" : 5126,
            "count" : 2755,
            "type" : "VEC2"
        },
        {
            "bufferView" : 3,
            "componentType" : 5123,
            "count" : 9060,
            "type" : "SCALAR"
        }
    ],
    "bufferViews" : [
        {
            "buffer" : 0,
            "byteLength" : 33060,
            "byteOffset" : 0
        },
        {
            "buffer" : 0,
            "byteLength" : 33060,
            "byteOffset" : 33060
        },
        {
            "buffer" : 0,
            "byteLength" : 22040,
            "byteOffset" : 66120
        },
        {
            "buffer" : 0,
            "byteLength" : 18120,
            "byteOffset" : 88160
        },
        {
            "buffer" : 0,
            "byteLength" : 124019,
            "byteOffset" : 106280
        }
    ],
    "buffers" : [
        {
            "byteLength" : 230300,
            "uri" : "data:application/octet-stream;base64,"
        }
    ]
}
