####
#
# OBJ File Generated by Meshlab
#
####
# Object table_v3.obj
#
# Vertices: 106
# Faces: 148
#
####
mtllib ./table_v3.mtl

vn 1.570796 1.570796 1.570796
v 0.375000 0.775000 0.875000 0.752941 0.752941 0.752941
vn 1.570797 1.570796 -1.570796
v 0.375000 0.775000 -0.875000 0.752941 0.752941 0.752941
vn 1.570797 -1.570796 1.570796
v 0.375000 0.725000 0.875000 0.752941 0.752941 0.752941
vn 1.570796 -1.570796 -1.570796
v 0.375000 0.725000 -0.875000 0.752941 0.752941 0.752941
vn -1.570796 1.570796 -1.570796
v -0.375000 0.775000 -0.875000 0.752941 0.752941 0.752941
vn -1.570797 1.570796 1.570796
v -0.375000 0.775000 0.875000 0.752941 0.752941 0.752941
vn -1.570797 -1.570796 -1.570796
v -0.375000 0.725000 -0.875000 0.752941 0.752941 0.752941
vn -1.570796 -1.570796 1.570796
v -0.375000 0.725000 0.875000 0.752941 0.752941 0.752941
vn 0.406551 1.308998 1.517273
v 0.000000 0.755000 -0.460000 0.752941 0.752941 0.752941
vn 1.517271 2.617993 2.627994
v 0.020000 0.755000 -0.465359 0.752941 0.752941 0.752941
vn 2.627994 2.617994 1.517273
v 0.034641 0.755000 -0.480000 0.752941 0.752941 0.752941
vn 3.034546 2.617994 -0.000001
v 0.040000 0.755000 -0.500000 0.752941 0.752941 0.752941
vn 2.627995 2.617995 -1.517272
v 0.034641 0.755000 -0.520000 0.752941 0.752941 0.752941
vn 1.517275 2.617993 -2.627993
v 0.020000 0.755000 -0.534641 0.752941 0.752941 0.752941
vn 0.000000 2.617993 -3.034545
v 0.000000 0.755000 -0.540000 0.752941 0.752941 0.752941
vn -1.517275 2.617993 -2.627993
v -0.020000 0.755000 -0.534641 0.752941 0.752941 0.752941
vn -2.627995 2.617995 -1.517272
v -0.034641 0.755000 -0.520000 0.752941 0.752941 0.752941
vn -3.034546 2.617994 -0.000001
v -0.040000 0.755000 -0.500000 0.752941 0.752941 0.752941
vn -2.627994 2.617994 1.517272
v -0.034641 0.755000 -0.480000 0.752941 0.752941 0.752941
vn -1.517272 2.617993 2.627994
v -0.020000 0.755000 -0.465359 0.752941 0.752941 0.752941
vn -0.406551 1.308998 1.517273
v -0.000000 0.755000 -0.460000 0.752941 0.752941 0.752941
vn 0.406551 -1.308998 1.517273
v 0.000000 0.005000 -0.460000 0.752941 0.752941 0.752941
vn 1.517272 -2.617993 2.627994
v 0.020000 0.005000 -0.465359 0.752941 0.752941 0.752941
vn 2.627994 -2.617994 1.517273
v 0.034641 0.005000 -0.480000 0.752941 0.752941 0.752941
vn 3.034546 -2.617994 -0.000001
v 0.040000 0.005000 -0.500000 0.752941 0.752941 0.752941
vn 2.627995 -2.617995 -1.517272
v 0.034641 0.005000 -0.520000 0.752941 0.752941 0.752941
vn 1.517275 -2.617993 -2.627993
v 0.020000 0.005000 -0.534641 0.752941 0.752941 0.752941
vn -0.000000 -2.617993 -3.034545
v 0.000000 0.005000 -0.540000 0.752941 0.752941 0.752941
vn -1.517275 -2.617993 -2.627993
v -0.020000 0.005000 -0.534641 0.752941 0.752941 0.752941
vn -2.627995 -2.617995 -1.517272
v -0.034641 0.005000 -0.520000 0.752941 0.752941 0.752941
vn -3.034546 -2.617994 -0.000001
v -0.040000 0.005000 -0.500000 0.752941 0.752941 0.752941
vn -2.627994 -2.617994 1.517273
v -0.034641 0.005000 -0.480000 0.752941 0.752941 0.752941
vn -1.517271 -2.617993 2.627994
v -0.020000 0.005000 -0.465359 0.752941 0.752941 0.752941
vn -0.406551 -1.308998 1.517273
v -0.000000 0.005000 -0.460000 0.752941 0.752941 0.752941
vn 0.000000 6.283186 0.000000
v 0.000000 0.755000 -0.500000 0.752941 0.752941 0.752941
vn 0.000000 -6.283186 0.000000
v 0.000000 0.005000 -0.500000 0.752941 0.752941 0.752941
vn 0.000000 6.283187 0.000000
v 0.000000 0.015000 -0.500000 0.752941 0.752941 0.752941
vn 0.000000 2.827433 0.000000
v 0.180000 0.015000 -0.500000 0.752941 0.752941 0.752941
vn 0.000000 2.827434 0.000000
v 0.171190 0.015000 -0.555623 0.752941 0.752941 0.752941
vn 0.000000 2.827434 0.000000
v 0.145623 0.015000 -0.605801 0.752941 0.752941 0.752941
vn 0.000000 2.827432 0.000000
v 0.105801 0.015000 -0.645623 0.752941 0.752941 0.752941
vn 0.000000 2.827435 0.000000
v 0.055623 0.015000 -0.671190 0.752941 0.752941 0.752941
vn 0.000000 2.827432 0.000000
v 0.000000 0.015000 -0.680000 0.752941 0.752941 0.752941
vn 0.000000 2.827435 0.000000
v -0.055623 0.015000 -0.671190 0.752941 0.752941 0.752941
vn 0.000000 2.827432 0.000000
v -0.105801 0.015000 -0.645623 0.752941 0.752941 0.752941
vn 0.000000 2.827434 0.000000
v -0.145623 0.015000 -0.605801 0.752941 0.752941 0.752941
vn 0.000000 2.827434 0.000000
v -0.171190 0.015000 -0.555623 0.752941 0.752941 0.752941
vn 0.000000 2.827433 0.000000
v -0.180000 0.015000 -0.500000 0.752941 0.752941 0.752941
vn 0.000000 2.827434 0.000000
v -0.171190 0.015000 -0.444377 0.752941 0.752941 0.752941
vn 0.000000 2.827433 0.000000
v -0.145623 0.015000 -0.394199 0.752941 0.752941 0.752941
vn 0.000000 2.827433 0.000000
v -0.105801 0.015000 -0.354377 0.752941 0.752941 0.752941
vn 0.000000 2.827434 0.000000
v -0.055623 0.015000 -0.328810 0.752941 0.752941 0.752941
vn 0.000000 2.827433 0.000000
v -0.000000 0.015000 -0.320000 0.752941 0.752941 0.752941
vn 0.000000 2.827434 0.000000
v 0.055623 0.015000 -0.328810 0.752941 0.752941 0.752941
vn 0.000000 2.827433 0.000000
v 0.105801 0.015000 -0.354377 0.752941 0.752941 0.752941
vn 0.000000 2.827433 0.000000
v 0.145623 0.015000 -0.394199 0.752941 0.752941 0.752941
vn 0.000000 2.827434 0.000000
v 0.171190 0.015000 -0.444377 0.752941 0.752941 0.752941
vn 0.406553 1.308996 1.517273
v 0.000000 0.749400 0.540000 0.752941 0.752941 0.752941
vn 1.517275 2.617993 2.627993
v 0.020000 0.749400 0.534641 0.752941 0.752941 0.752941
vn 2.627995 2.617995 1.517272
v 0.034641 0.749400 0.520000 0.752941 0.752941 0.752941
vn 3.034546 2.617994 0.000001
v 0.040000 0.749400 0.500000 0.752941 0.752941 0.752941
vn 2.627994 2.617994 -1.517272
v 0.034641 0.749400 0.480000 0.752941 0.752941 0.752941
vn 1.517272 2.617993 -2.627994
v 0.020000 0.749400 0.465359 0.752941 0.752941 0.752941
vn 0.000000 2.617996 -3.034547
v 0.000000 0.749400 0.460000 0.752941 0.752941 0.752941
vn -1.517271 2.617993 -2.627994
v -0.020000 0.749400 0.465359 0.752941 0.752941 0.752941
vn -2.627994 2.617994 -1.517273
v -0.034641 0.749400 0.480000 0.752941 0.752941 0.752941
vn -3.034546 2.617994 0.000001
v -0.040000 0.749400 0.500000 0.752941 0.752941 0.752941
vn -2.627995 2.617995 1.517272
v -0.034641 0.749400 0.520000 0.752941 0.752941 0.752941
vn -1.517275 2.617993 2.627993
v -0.020000 0.749400 0.534641 0.752941 0.752941 0.752941
vn -0.406553 1.308996 1.517273
v -0.000000 0.749400 0.540000 0.752941 0.752941 0.752941
vn 0.406553 -1.308996 1.517273
v 0.000000 -0.000600 0.540000 0.752941 0.752941 0.752941
vn 1.517275 -2.617993 2.627993
v 0.020000 -0.000600 0.534641 0.752941 0.752941 0.752941
vn 2.627995 -2.617995 1.517272
v 0.034641 -0.000600 0.520000 0.752941 0.752941 0.752941
vn 3.034546 -2.617994 0.000001
v 0.040000 -0.000600 0.500000 0.752941 0.752941 0.752941
vn 2.627994 -2.617994 -1.517273
v 0.034641 -0.000600 0.480000 0.752941 0.752941 0.752941
vn 1.517271 -2.617993 -2.627994
v 0.020000 -0.000600 0.465359 0.752941 0.752941 0.752941
vn -0.000000 -2.617996 -3.034547
v 0.000000 -0.000600 0.460000 0.752941 0.752941 0.752941
vn -1.517272 -2.617993 -2.627994
v -0.020000 -0.000600 0.465359 0.752941 0.752941 0.752941
vn -2.627994 -2.617994 -1.517273
v -0.034641 -0.000600 0.480000 0.752941 0.752941 0.752941
vn -3.034546 -2.617994 0.000001
v -0.040000 -0.000600 0.500000 0.752941 0.752941 0.752941
vn -2.627995 -2.617995 1.517272
v -0.034641 -0.000600 0.520000 0.752941 0.752941 0.752941
vn -1.517275 -2.617993 2.627993
v -0.020000 -0.000600 0.534641 0.752941 0.752941 0.752941
vn -0.406553 -1.308996 1.517273
v -0.000000 -0.000600 0.540000 0.752941 0.752941 0.752941
vn 0.000000 6.283186 0.000000
v 0.000000 0.749400 0.500000 0.752941 0.752941 0.752941
vn 0.000000 -6.283186 0.000000
v 0.000000 -0.000600 0.500000 0.752941 0.752941 0.752941
vn 0.000000 6.283188 0.000000
v 0.000000 0.009400 0.500000 0.752941 0.752941 0.752941
vn 0.000000 2.827433 0.000000
v 0.180000 0.009400 0.500000 0.752941 0.752941 0.752941
vn 0.000000 2.827434 0.000000
v 0.171190 0.009400 0.444377 0.752941 0.752941 0.752941
vn 0.000000 2.827433 0.000000
v 0.145623 0.009400 0.394199 0.752941 0.752941 0.752941
vn 0.000000 2.827433 0.000000
v 0.105801 0.009400 0.354377 0.752941 0.752941 0.752941
vn 0.000000 2.827434 0.000000
v 0.055623 0.009400 0.328810 0.752941 0.752941 0.752941
vn 0.000000 2.827433 0.000000
v 0.000000 0.009400 0.320000 0.752941 0.752941 0.752941
vn 0.000000 2.827434 0.000000
v -0.055623 0.009400 0.328810 0.752941 0.752941 0.752941
vn 0.000000 2.827433 0.000000
v -0.105801 0.009400 0.354377 0.752941 0.752941 0.752941
vn 0.000000 2.827433 0.000000
v -0.145623 0.009400 0.394199 0.752941 0.752941 0.752941
vn 0.000000 2.827434 0.000000
v -0.171190 0.009400 0.444377 0.752941 0.752941 0.752941
vn 0.000000 2.827433 0.000000
v -0.180000 0.009400 0.500000 0.752941 0.752941 0.752941
vn 0.000000 2.827434 0.000000
v -0.171190 0.009400 0.555623 0.752941 0.752941 0.752941
vn 0.000000 2.827434 0.000000
v -0.145623 0.009400 0.605801 0.752941 0.752941 0.752941
vn 0.000000 2.827432 0.000000
v -0.105801 0.009400 0.645623 0.752941 0.752941 0.752941
vn 0.000000 2.827435 0.000000
v -0.055623 0.009400 0.671190 0.752941 0.752941 0.752941
vn 0.000000 2.827432 0.000000
v -0.000000 0.009400 0.680000 0.752941 0.752941 0.752941
vn 0.000000 2.827435 0.000000
v 0.055623 0.009400 0.671190 0.752941 0.752941 0.752941
vn 0.000000 2.827432 0.000000
v 0.105801 0.009400 0.645623 0.752941 0.752941 0.752941
vn 0.000000 2.827434 0.000000
v 0.145623 0.009400 0.605801 0.752941 0.752941 0.752941
vn 0.000000 2.827434 0.000000
v 0.171190 0.009400 0.555623 0.752941 0.752941 0.752941
# 106 vertices, 0 vertices normals


usemtl material_0
vt 0.000000 1.000000
vt 0.000000 0.000000
vt 1.000000 1.000000
f 1/1/1 3/2/3 2/3/2
vt 1.000000 0.000000
f 3/2/3 4/4/4 2/3/2
f 5/1/5 7/2/7 6/3/6
f 7/2/7 8/4/8 6/3/6
f 5/1/5 6/2/6 2/3/2
f 6/2/6 1/4/1 2/3/2
f 8/1/8 7/2/7 3/3/3
f 7/2/7 4/4/4 3/3/3
f 6/1/6 8/2/8 1/3/1
f 8/2/8 3/4/3 1/3/1
f 2/1/2 4/2/4 5/3/5
f 4/2/4 7/4/7 5/3/5
vt 0.083333 1.000000
f 9/1/9 22/2/22 10/5/10
vt 0.083333 0.000000
f 22/2/22 23/6/23 10/5/10
vt 0.166667 1.000000
f 10/5/10 23/6/23 11/7/11
vt 0.166667 0.000000
f 23/6/23 24/8/24 11/7/11
vt 0.250000 1.000000
f 11/7/11 24/8/24 12/9/12
vt 0.250000 0.000000
f 24/8/24 25/10/25 12/9/12
vt 0.333333 1.000000
f 12/9/12 25/10/25 13/11/13
vt 0.333333 0.000000
f 25/10/25 26/12/26 13/11/13
vt 0.416667 1.000000
f 13/11/13 26/12/26 14/13/14
vt 0.416667 0.000000
f 26/12/26 27/14/27 14/13/14
vt 0.500000 1.000000
f 14/13/14 27/14/27 15/15/15
vt 0.500000 0.000000
f 27/14/27 28/16/28 15/15/15
vt 0.583333 1.000000
f 15/15/15 28/16/28 16/17/16
vt 0.583333 0.000000
f 28/16/28 29/18/29 16/17/16
vt 0.666667 1.000000
f 16/17/16 29/18/29 17/19/17
vt 0.666667 0.000000
f 29/18/29 30/20/30 17/19/17
vt 0.750000 1.000000
f 17/19/17 30/20/30 18/21/18
vt 0.750000 0.000000
f 30/20/30 31/22/31 18/21/18
vt 0.833333 1.000000
f 18/21/18 31/22/31 19/23/19
vt 0.833333 0.000000
f 31/22/31 32/24/32 19/23/19
vt 0.916667 1.000000
f 19/23/19 32/24/32 20/25/20
vt 0.916667 0.000000
f 32/24/32 33/26/33 20/25/20
f 20/25/20 33/26/33 21/3/21
f 33/26/33 34/4/34 21/3/21
vt 1.000000 0.500000
vt 0.933013 0.750000
vt 0.500000 0.500000
f 9/27/9 10/28/10 35/29/35
vt 0.750000 0.933013
f 10/28/10 11/30/11 35/29/35
f 11/30/11 12/15/12 35/29/35
vt 0.250000 0.933013
f 12/15/12 13/31/13 35/29/35
vt 0.066987 0.750000
f 13/31/13 14/32/14 35/29/35
vt 0.000000 0.500000
f 14/32/14 15/33/15 35/29/35
vt 0.066987 0.250000
f 15/33/15 16/34/16 35/29/35
vt 0.250000 0.066987
f 16/34/16 17/35/17 35/29/35
f 17/35/17 18/16/18 35/29/35
vt 0.750000 0.066987
f 18/16/18 19/36/19 35/29/35
vt 0.933013 0.250000
f 19/36/19 20/37/20 35/29/35
f 20/37/20 21/27/21 35/29/35
f 23/37/23 22/27/22 36/29/36
f 24/36/24 23/37/23 36/29/36
f 25/16/25 24/36/24 36/29/36
f 26/35/26 25/16/25 36/29/36
f 27/34/27 26/35/26 36/29/36
f 28/33/28 27/34/27 36/29/36
f 29/32/29 28/33/28 36/29/36
f 30/31/30 29/32/29 36/29/36
f 31/15/31 30/31/30 36/29/36
f 32/30/32 31/15/31 36/29/36
f 33/28/33 32/30/32 36/29/36
f 34/27/34 33/28/33 36/29/36
vt 0.975528 0.654508
f 38/27/38 39/38/39 37/29/37
vt 0.904508 0.793893
f 39/38/39 40/39/40 37/29/37
vt 0.793893 0.904508
f 40/39/40 41/40/41 37/29/37
vt 0.654508 0.975528
f 41/40/41 42/41/42 37/29/37
f 42/41/42 43/15/43 37/29/37
vt 0.345491 0.975528
f 43/15/43 44/42/44 37/29/37
vt 0.206107 0.904508
f 44/42/44 45/43/45 37/29/37
vt 0.095492 0.793893
f 45/43/45 46/44/46 37/29/37
vt 0.024472 0.654508
f 46/44/46 47/45/47 37/29/37
f 47/45/47 48/33/48 37/29/37
vt 0.024472 0.345491
f 48/33/48 49/46/49 37/29/37
vt 0.095492 0.206107
f 49/46/49 50/47/50 37/29/37
vt 0.206107 0.095492
f 50/47/50 51/48/51 37/29/37
vt 0.345491 0.024472
f 51/48/51 52/49/52 37/29/37
f 52/49/52 53/16/53 37/29/37
vt 0.654508 0.024472
f 53/16/53 54/50/54 37/29/37
vt 0.793893 0.095492
f 54/50/54 55/51/55 37/29/37
vt 0.904508 0.206107
f 55/51/55 56/52/56 37/29/37
vt 0.975528 0.345491
f 56/52/56 57/53/57 37/29/37
f 57/53/57 38/27/38 37/29/37
f 58/1/58 71/2/71 59/5/59
f 71/2/71 72/6/72 59/5/59
f 59/5/59 72/6/72 60/7/60
f 72/6/72 73/8/73 60/7/60
f 60/7/60 73/8/73 61/9/61
f 73/8/73 74/10/74 61/9/61
f 61/9/61 74/10/74 62/11/62
f 74/10/74 75/12/75 62/11/62
f 62/11/62 75/12/75 63/13/63
f 75/12/75 76/14/76 63/13/63
f 63/13/63 76/14/76 64/15/64
f 76/14/76 77/16/77 64/15/64
f 64/15/64 77/16/77 65/17/65
f 77/16/77 78/18/78 65/17/65
f 65/17/65 78/18/78 66/19/66
f 78/18/78 79/20/79 66/19/66
f 66/19/66 79/20/79 67/21/67
f 79/20/79 80/22/80 67/21/67
f 67/21/67 80/22/80 68/23/68
f 80/22/80 81/24/81 68/23/68
f 68/23/68 81/24/81 69/25/69
f 81/24/81 82/26/82 69/25/69
f 69/25/69 82/26/82 70/3/70
f 82/26/82 83/4/83 70/3/70
f 58/27/58 59/28/59 84/29/84
f 59/28/59 60/30/60 84/29/84
f 60/30/60 61/15/61 84/29/84
f 61/15/61 62/31/62 84/29/84
f 62/31/62 63/32/63 84/29/84
f 63/32/63 64/33/64 84/29/84
f 64/33/64 65/34/65 84/29/84
f 65/34/65 66/35/66 84/29/84
f 66/35/66 67/16/67 84/29/84
f 67/16/67 68/36/68 84/29/84
f 68/36/68 69/37/69 84/29/84
f 69/37/69 70/27/70 84/29/84
f 72/37/72 71/27/71 85/29/85
f 73/36/73 72/37/72 85/29/85
f 74/16/74 73/36/73 85/29/85
f 75/35/75 74/16/74 85/29/85
f 76/34/76 75/35/75 85/29/85
f 77/33/77 76/34/76 85/29/85
f 78/32/78 77/33/77 85/29/85
f 79/31/79 78/32/78 85/29/85
f 80/15/80 79/31/79 85/29/85
f 81/30/81 80/15/80 85/29/85
f 82/28/82 81/30/81 85/29/85
f 83/27/83 82/28/82 85/29/85
f 87/27/87 88/38/88 86/29/86
f 88/38/88 89/39/89 86/29/86
f 89/39/89 90/40/90 86/29/86
f 90/40/90 91/41/91 86/29/86
f 91/41/91 92/15/92 86/29/86
f 92/15/92 93/42/93 86/29/86
f 93/42/93 94/43/94 86/29/86
f 94/43/94 95/44/95 86/29/86
f 95/44/95 96/45/96 86/29/86
f 96/45/96 97/33/97 86/29/86
f 97/33/97 98/46/98 86/29/86
f 98/46/98 99/47/99 86/29/86
f 99/47/99 100/48/100 86/29/86
f 100/48/100 101/49/101 86/29/86
f 101/49/101 102/16/102 86/29/86
f 102/16/102 103/50/103 86/29/86
f 103/50/103 104/51/104 86/29/86
f 104/51/104 105/52/105 86/29/86
f 105/52/105 106/53/106 86/29/86
f 106/53/106 87/27/87 86/29/86
# 148 faces, 53 coords texture

# End of File
