{
    "asset" : {
        "generator" : "Khronos glTF Blender I/O v0.9.2",
        "version" : "2.0"
    },
    "scene" : 0,
    "scenes" : [
        {
            "name" : "Scene",
            "nodes" : [
                0
            ]
        }
    ],
    "nodes" : [
        {
            "mesh" : 0,
            "name" : "Bar_Chair_Cube.001"
        }
    ],
    "materials" : [
        {
            "name" : "Material.003",
            "pbrMetallicRoughness" : {
                "baseColorFactor" : [
                    1,
                    0.010665333829820156,
                    0.8381940126419067,
                    1
                ],
                "metallicFactor" : 0,
                "roughnessFactor" : 0.5
            }
        }
    ],
    "meshes" : [
        {
            "name" : "Bar_Chair_Cube.001",
            "primitives" : [
                {
                    "attributes" : {
                        "POSITION" : 0,
                        "NORMAL" : 1,
                        "TEXCOORD_0" : 2
                    },
                    "indices" : 3,
                    "material" : 0
                }
            ]
        }
    ],
    "accessors" : [
        {
            "bufferView" : 0,
            "componentType" : 5126,
            "count" : 10047,
            "max" : [
                0.7913110256195068,
                3.315929889678955,
                1.1855989694595337
            ],
            "min" : [
                -0.7913029789924622,
                0.002436034381389618,
                -0.7020540237426758
            ],
            "type" : "VEC3"
        },
        {
            "bufferView" : 1,
            "componentType" : 5126,
            "count" : 10047,
            "type" : "VEC3"
        },
        {
            "bufferView" : 2,
            "componentType" : 5126,
            "count" : 10047,
            "type" : "VEC2"
        },
        {
            "bufferView" : 3,
            "componentType" : 5123,
            "count" : 54336,
            "type" : "SCALAR"
        }
    ],
    "bufferViews" : [
        {
            "buffer" : 0,
            "byteLength" : 120564,
            "byteOffset" : 0
        },
        {
            "buffer" : 0,
            "byteLength" : 120564,
            "byteOffset" : 120564
        },
        {
            "buffer" : 0,
            "byteLength" : 80376,
            "byteOffset" : 241128
        },
        {
            "buffer" : 0,
            "byteLength" : 108672,
            "byteOffset" : 321504
        }
    ],
    "buffers" : [
        {
            "byteLength" : 430176,
            "uri" : "data:application/octet-stream;base64,"
        }
    ]
}
