{
    "asset" : {
        "generator" : "Khronos glTF Blender I/O v0.9.0",
        "version" : "2.0"
    },
    "scene" : 0,
    "scenes" : [
        {
            "name" : "Scene",
            "nodes" : [
                0
            ]
        }
    ],
    "nodes" : [
        {
            "mesh" : 0,
            "name" : "bar_chair",
            "scale" : [
                0.6113544702529907,
                0.718081533908844,
                0.6113543510437012
            ],
            "translation" : [
                0,
                0.709033727645874,
                0
            ]
        }
    ],
    "meshes" : [
        {
            "name" : "bar_chair",
            "primitives" : [
                {
                    "attributes" : {
                        "POSITION" : 0,
                        "NORMAL" : 1,
                        "TEXCOORD_0" : 2
                    },
                    "indices" : 3
                }
            ]
        }
    ],
    "accessors" : [
        {
            "bufferView" : 0,
            "componentType" : 5126,
            "count" : 864,
            "max" : [
                0.33741599321365356,
                0.32014286518096924,
                0.33741599321365356
            ],
            "min" : [
                -0.33741599321365356,
                -0.974873423576355,
                -0.33741605281829834
            ],
            "type" : "VEC3"
        },
        {
            "bufferView" : 1,
            "componentType" : 5126,
            "count" : 864,
            "type" : "VEC3"
        },
        {
            "bufferView" : 2,
            "componentType" : 5126,
            "count" : 864,
            "type" : "VEC2"
        },
        {
            "bufferView" : 3,
            "componentType" : 5123,
            "count" : 1548,
            "type" : "SCALAR"
        }
    ],
    "bufferViews" : [
        {
            "buffer" : 0,
            "byteLength" : 10368,
            "byteOffset" : 0
        },
        {
            "buffer" : 0,
            "byteLength" : 10368,
            "byteOffset" : 10368
        },
        {
            "buffer" : 0,
            "byteLength" : 6912,
            "byteOffset" : 20736
        },
        {
            "buffer" : 0,
            "byteLength" : 3096,
            "byteOffset" : 27648
        }
    ],
    "buffers" : [
        {
            "byteLength" : 30744,
            "uri" : "data:application/octet-stream;base64,"
        }
    ]
}
