{
    "asset" : {
        "copyright" : "Kocieba PGS",
        "generator" : "Khronos glTF Blender I/O v0.9.36",
        "version" : "2.0"
    },
    "scene" : 0,
    "scenes" : [
        {
            "name" : "Scene",
            "nodes" : [
                0
            ]
        }
    ],
    "nodes" : [
        {
            "mesh" : 0,
            "name" : "big_fridge",
            "rotation" : [
                0,
                0.7071067690849304,
                0,
                0.7071067690849304
            ],
            "scale" : [
                0.941054105758667,
                1,
                1
            ],
            "translation" : [
                -0.17289051413536072,
                1.4196336269378662,
                -0.0006805062294006348
            ]
        }
    ],
    "materials" : [
        {
            "doubleSided" : true,
            "name" : "fridge back",
            "pbrMetallicRoughness" : {
                "baseColorFactor" : [
                    0,
                    0,
                    0,
                    1
                ],
                "metallicFactor" : 0.6638655662536621,
                "roughnessFactor" : 0.25
            }
        },
        {
            "doubleSided" : true,
            "name" : "fridge door",
            "pbrMetallicRoughness" : {
                "baseColorFactor" : [
                    0.2817508578300476,
                    0.2817508578300476,
                    0.2817508578300476,
                    1
                ],
                "metallicFactor" : 0.5,
                "roughnessFactor" : 0
            }
        },
        {
            "doubleSided" : true,
            "name" : "fridge handle.001",
            "pbrMetallicRoughness" : {
                "baseColorFactor" : [
                    0,
                    0,
                    0,
                    1
                ],
                "metallicFactor" : 0,
                "roughnessFactor" : 0.34453800320625305
            }
        },
        {
            "doubleSided" : true,
            "name" : "fridge handle",
            "pbrMetallicRoughness" : {
                "baseColorFactor" : [
                    0,
                    0,
                    0,
                    1
                ],
                "metallicFactor" : 0,
                "roughnessFactor" : 0.34453800320625305
            }
        }
    ],
    "meshes" : [
        {
            "name" : "Cube",
            "primitives" : [
                {
                    "attributes" : {
                        "POSITION" : 0,
                        "TEXCOORD_0" : 1
                    },
                    "indices" : 2,
                    "material" : 0
                },
                {
                    "attributes" : {
                        "POSITION" : 3,
                        "TEXCOORD_0" : 4
                    },
                    "indices" : 5,
                    "material" : 1
                },
                {
                    "attributes" : {
                        "POSITION" : 6,
                        "TEXCOORD_0" : 7
                    },
                    "indices" : 8,
                    "material" : 2
                },
                {
                    "attributes" : {
                        "POSITION" : 9,
                        "TEXCOORD_0" : 10
                    },
                    "indices" : 11,
                    "material" : 3
                }
            ]
        }
    ],
    "accessors" : [
        {
            "bufferView" : 0,
            "componentType" : 5126,
            "count" : 137,
            "max" : [
                0.8271094560623169,
                1.5351392030715942,
                0.8744308948516846
            ],
            "min" : [
                0.00810554251074791,
                -1.5351356267929077,
                -0.9993194937705994
            ],
            "type" : "VEC3"
        },
        {
            "bufferView" : 1,
            "componentType" : 5126,
            "count" : 137,
            "type" : "VEC2"
        },
        {
            "bufferView" : 2,
            "componentType" : 5123,
            "count" : 219,
            "type" : "SCALAR"
        },
        {
            "bufferView" : 3,
            "componentType" : 5126,
            "count" : 31,
            "max" : [
                0.8271094560623169,
                1.5351392030715942,
                1.0006805658340454
            ],
            "min" : [
                0.00810554251074791,
                -1.5351356267929077,
                0.8744308948516846
            ],
            "type" : "VEC3"
        },
        {
            "bufferView" : 4,
            "componentType" : 5126,
            "count" : 31,
            "type" : "VEC2"
        },
        {
            "bufferView" : 5,
            "componentType" : 5123,
            "count" : 51,
            "type" : "SCALAR"
        },
        {
            "bufferView" : 6,
            "componentType" : 5126,
            "count" : 76,
            "max" : [
                0.09719165414571762,
                0.18884128332138062,
                1.086686372756958
            ],
            "min" : [
                0.07343267649412155,
                -0.26180875301361084,
                1.0006805658340454
            ],
            "type" : "VEC3"
        },
        {
            "bufferView" : 7,
            "componentType" : 5126,
            "count" : 76,
            "type" : "VEC2"
        },
        {
            "bufferView" : 8,
            "componentType" : 5123,
            "count" : 132,
            "type" : "SCALAR"
        },
        {
            "bufferView" : 9,
            "componentType" : 5126,
            "count" : 3,
            "max" : [
                0.036506738513708115,
                -1.5351355075836182,
                1.0006805658340454
            ],
            "min" : [
                0.008270945399999619,
                -1.5351355075836182,
                0.8744308948516846
            ],
            "type" : "VEC3"
        },
        {
            "bufferView" : 10,
            "componentType" : 5126,
            "count" : 3,
            "type" : "VEC2"
        },
        {
            "bufferView" : 11,
            "componentType" : 5123,
            "count" : 3,
            "type" : "SCALAR"
        }
    ],
    "bufferViews" : [
        {
            "buffer" : 0,
            "byteLength" : 1644,
            "byteOffset" : 0
        },
        {
            "buffer" : 0,
            "byteLength" : 1096,
            "byteOffset" : 1644
        },
        {
            "buffer" : 0,
            "byteLength" : 438,
            "byteOffset" : 2740
        },
        {
            "buffer" : 0,
            "byteLength" : 372,
            "byteOffset" : 3180
        },
        {
            "buffer" : 0,
            "byteLength" : 248,
            "byteOffset" : 3552
        },
        {
            "buffer" : 0,
            "byteLength" : 102,
            "byteOffset" : 3800
        },
        {
            "buffer" : 0,
            "byteLength" : 912,
            "byteOffset" : 3904
        },
        {
            "buffer" : 0,
            "byteLength" : 608,
            "byteOffset" : 4816
        },
        {
            "buffer" : 0,
            "byteLength" : 264,
            "byteOffset" : 5424
        },
        {
            "buffer" : 0,
            "byteLength" : 36,
            "byteOffset" : 5688
        },
        {
            "buffer" : 0,
            "byteLength" : 24,
            "byteOffset" : 5724
        },
        {
            "buffer" : 0,
            "byteLength" : 6,
            "byteOffset" : 5748
        }
    ],
    "buffers" : [
        {
            "byteLength" : 5756,
            "uri" : "data:application/octet-stream;base64,"
        }
    ]
}
